# Blender 4.5.5 LTS
# www.blender.org
mtllib combine_meshes.mtl
o Cube
v 1.000000 1.000000 -1.000000
v 1.000000 -1.000000 -1.000000
v 1.000000 1.000000 1.000000
v 1.000000 -1.000000 1.000000
v -1.000000 1.000000 -1.000000
v -1.000000 -1.000000 -1.000000
v -1.000000 1.000000 1.000000
v -1.000000 -1.000000 1.000000
vn -0.0000 1.0000 -0.0000
vn -0.0000 -0.0000 1.0000
vn -1.0000 -0.0000 -0.0000
vn -0.0000 -1.0000 -0.0000
vn 1.0000 -0.0000 -0.0000
vn -0.0000 -0.0000 -1.0000
vt 0.625000 0.500000
vt 0.875000 0.500000
vt 0.875000 0.750000
vt 0.625000 0.750000
vt 0.375000 0.750000
vt 0.625000 1.000000
vt 0.375000 1.000000
vt 0.375000 0.000000
vt 0.625000 0.000000
vt 0.625000 0.250000
vt 0.375000 0.250000
vt 0.125000 0.500000
vt 0.375000 0.500000
vt 0.125000 0.750000
s 0
usemtl Material
f 1/1/1 5/2/1 7/3/1 3/4/1
f 4/5/2 3/4/2 7/6/2 8/7/2
f 8/8/3 7/9/3 5/10/3 6/11/3
f 6/12/4 2/13/4 4/5/4 8/14/4
f 2/13/5 1/1/5 3/4/5 4/5/5
f 6/11/6 5/10/6 1/1/6 2/13/6
o Icosphere
v 0.000000 -1.000000 0.000000
v 0.723607 -0.447220 0.525725
v -0.276388 -0.447220 0.850649
v -0.894426 -0.447216 0.000000
v -0.276388 -0.447220 -0.850649
v 0.723607 -0.447220 -0.525725
v 0.276388 0.447220 0.850649
v -0.723607 0.447220 0.525725
v -0.723607 0.447220 -0.525725
v 0.276388 0.447220 -0.850649
v 0.894426 0.447216 0.000000
v 0.000000 1.000000 0.000000
v -0.162456 -0.850654 0.499995
v 0.425323 -0.850654 0.309011
v 0.262869 -0.525738 0.809012
v 0.850648 -0.525736 0.000000
v 0.425323 -0.850654 -0.309011
v -0.525730 -0.850652 0.000000
v -0.688189 -0.525736 0.499997
v -0.162456 -0.850654 -0.499995
v -0.688189 -0.525736 -0.499997
v 0.262869 -0.525738 -0.809012
v 0.951058 0.000000 0.309013
v 0.951058 0.000000 -0.309013
v 0.000000 0.000000 1.000000
v 0.587786 0.000000 0.809017
v -0.951058 0.000000 0.309013
v -0.587786 0.000000 0.809017
v -0.587786 0.000000 -0.809017
v -0.951058 0.000000 -0.309013
v 0.587786 0.000000 -0.809017
v 0.000000 0.000000 -1.000000
v 0.688189 0.525736 0.499997
v -0.262869 0.525738 0.809012
v -0.850648 0.525736 0.000000
v -0.262869 0.525738 -0.809012
v 0.688189 0.525736 -0.499997
v 0.162456 0.850654 0.499995
v 0.525730 0.850652 0.000000
v -0.425323 0.850654 0.309011
v -0.425323 0.850654 -0.309011
v 0.162456 0.850654 -0.499995
vn 0.1024 -0.9435 0.3151
vn 0.7002 -0.6617 0.2680
vn -0.2680 -0.9435 0.1947
vn -0.2680 -0.9435 -0.1947
vn 0.1024 -0.9435 -0.3151
vn 0.9050 -0.3304 0.2680
vn 0.0247 -0.3304 0.9435
vn -0.8897 -0.3304 0.3151
vn -0.5746 -0.3304 -0.7488
vn 0.5346 -0.3304 -0.7779
vn 0.8026 -0.1256 0.5831
vn -0.3066 -0.1256 0.9435
vn -0.9921 -0.1256 -0.0000
vn -0.3066 -0.1256 -0.9435
vn 0.8026 -0.1256 -0.5831
vn 0.4089 0.6617 0.6284
vn -0.4713 0.6617 0.5831
vn -0.7002 0.6617 -0.2680
vn 0.0385 0.6617 -0.7488
vn 0.7240 0.6617 -0.1947
vn 0.2680 0.9435 -0.1947
vn 0.4911 0.7947 -0.3568
vn 0.4089 0.6617 -0.6284
vn -0.1024 0.9435 -0.3151
vn -0.1876 0.7947 -0.5773
vn -0.4713 0.6617 -0.5831
vn -0.3313 0.9435 -0.0000
vn -0.6071 0.7947 -0.0000
vn -0.7002 0.6617 0.2680
vn -0.1024 0.9435 0.3151
vn -0.1876 0.7947 0.5773
vn 0.0385 0.6617 0.7488
vn 0.2680 0.9435 0.1947
vn 0.4911 0.7947 0.3568
vn 0.7240 0.6617 0.1947
vn 0.8897 0.3304 -0.3151
vn 0.7947 0.1876 -0.5773
vn 0.5746 0.3304 -0.7488
vn -0.0247 0.3304 -0.9435
vn -0.3035 0.1876 -0.9342
vn -0.5346 0.3304 -0.7779
vn -0.9050 0.3304 -0.2680
vn -0.9822 0.1876 -0.0000
vn -0.9050 0.3304 0.2680
vn -0.5346 0.3304 0.7779
vn -0.3035 0.1876 0.9342
vn -0.0247 0.3304 0.9435
vn 0.5746 0.3304 0.7488
vn 0.7947 0.1876 0.5773
vn 0.8897 0.3304 0.3151
vn 0.3066 0.1256 -0.9435
vn 0.3035 -0.1876 -0.9342
vn 0.0247 -0.3304 -0.9435
vn -0.8026 0.1256 -0.5831
vn -0.7947 -0.1876 -0.5773
vn -0.8897 -0.3304 -0.3151
vn -0.8026 0.1256 0.5831
vn -0.7947 -0.1876 0.5773
vn -0.5746 -0.3304 0.7488
vn 0.3066 0.1256 0.9435
vn 0.3035 -0.1876 0.9342
vn 0.5346 -0.3304 0.7779
vn 0.9921 0.1256 -0.0000
vn 0.9822 -0.1876 -0.0000
vn 0.9050 -0.3304 -0.2680
vn 0.4713 -0.6617 -0.5831
vn 0.1876 -0.7947 -0.5773
vn -0.0385 -0.6617 -0.7488
vn -0.4089 -0.6617 -0.6284
vn -0.4911 -0.7947 -0.3568
vn -0.7240 -0.6617 -0.1947
vn -0.7240 -0.6617 0.1947
vn -0.4911 -0.7947 0.3568
vn -0.4089 -0.6617 0.6284
vn 0.7002 -0.6617 -0.2680
vn 0.6071 -0.7947 -0.0000
vn 0.3313 -0.9435 -0.0000
vn -0.0385 -0.6617 0.7488
vn 0.1876 -0.7947 0.5773
vn 0.4713 -0.6617 0.5831
vt 0.181819 0.000000
vt 0.227273 0.078731
vt 0.136365 0.078731
vt 0.272728 0.157461
vt 0.318182 0.078731
vt 0.363637 0.157461
vt 0.909091 0.000000
vt 0.954545 0.078731
vt 0.863636 0.078731
vt 0.727273 0.000000
vt 0.772727 0.078731
vt 0.681818 0.078731
vt 0.545455 0.000000
vt 0.590909 0.078731
vt 0.500000 0.078731
vt 0.318182 0.236191
vt 0.090910 0.157461
vt 0.181819 0.157461
vt 0.136365 0.236191
vt 0.818182 0.157461
vt 0.909091 0.157461
vt 0.863636 0.236191
vt 0.636364 0.157461
vt 0.727273 0.157461
vt 0.681818 0.236191
vt 0.454546 0.157461
vt 0.545455 0.157461
vt 0.500000 0.236191
vt 0.227273 0.236191
vt 0.045455 0.236191
vt 0.772727 0.236191
vt 0.590909 0.236191
vt 0.409092 0.236191
vt 0.181819 0.314921
vt 0.272728 0.314921
vt 0.227273 0.393651
vt 0.000000 0.314921
vt 0.090910 0.314921
vt 0.045455 0.393651
vt 0.727273 0.314921
vt 0.818182 0.314921
vt 0.772727 0.393651
vt 0.545455 0.314921
vt 0.636364 0.314921
vt 0.590909 0.393651
vt 0.363637 0.314921
vt 0.454546 0.314921
vt 0.409092 0.393651
vt 0.500000 0.393651
vt 0.454546 0.472382
vt 0.681818 0.393651
vt 0.636364 0.472382
vt 0.863636 0.393651
vt 0.818182 0.472382
vt 0.909091 0.314921
vt 0.136365 0.393651
vt 0.090910 0.472382
vt 0.318182 0.393651
vt 0.272728 0.472382
vt 0.954545 0.236191
vt 1.000000 0.157461
vt 0.409092 0.078731
vt 0.363637 0.000000
s 0
f 9/15/7 22/16/7 21/17/7
f 10/18/8 22/19/8 24/20/8
f 9/21/9 21/22/9 26/23/9
f 9/24/10 26/25/10 28/26/10
f 9/27/11 28/28/11 25/29/11
f 10/18/12 24/20/12 31/30/12
f 11/31/13 23/32/13 33/33/13
f 12/34/14 27/35/14 35/36/14
f 13/37/15 29/38/15 37/39/15
f 14/40/16 30/41/16 39/42/16
f 10/18/17 31/30/17 34/43/17
f 11/31/18 33/33/18 36/44/18
f 12/34/19 35/36/19 38/45/19
f 13/37/20 37/39/20 40/46/20
f 14/40/21 39/42/21 32/47/21
f 15/48/22 41/49/22 46/50/22
f 16/51/23 42/52/23 48/53/23
f 17/54/24 43/55/24 49/56/24
f 18/57/25 44/58/25 50/59/25
f 19/60/26 45/61/26 47/62/26
f 47/62/27 50/63/27 20/64/27
f 47/62/28 45/61/28 50/63/28
f 45/61/29 18/57/29 50/63/29
f 50/59/30 49/65/30 20/66/30
f 50/59/31 44/58/31 49/65/31
f 44/58/32 17/54/32 49/65/32
f 49/56/33 48/67/33 20/68/33
f 49/56/34 43/55/34 48/67/34
f 43/55/35 16/69/35 48/67/35
f 48/53/36 46/70/36 20/71/36
f 48/53/37 42/52/37 46/70/37
f 42/52/38 15/48/38 46/70/38
f 46/50/39 47/72/39 20/73/39
f 46/50/40 41/49/40 47/72/40
f 41/49/41 19/60/41 47/72/41
f 32/47/42 45/61/42 19/60/42
f 32/47/43 39/42/43 45/61/43
f 39/42/44 18/57/44 45/61/44
f 40/46/45 44/58/45 18/57/45
f 40/46/46 37/39/46 44/58/46
f 37/39/47 17/54/47 44/58/47
f 38/45/48 43/55/48 17/54/48
f 38/45/49 35/36/49 43/55/49
f 35/36/50 16/69/50 43/55/50
f 36/44/51 42/52/51 16/51/51
f 36/44/52 33/33/52 42/52/52
f 33/33/53 15/48/53 42/52/53
f 34/43/54 41/49/54 15/48/54
f 34/43/55 31/30/55 41/49/55
f 31/30/56 19/60/56 41/49/56
f 39/42/57 40/46/57 18/57/57
f 39/42/58 30/41/58 40/46/58
f 30/41/59 13/37/59 40/46/59
f 37/39/60 38/45/60 17/54/60
f 37/39/61 29/38/61 38/45/61
f 29/38/62 12/34/62 38/45/62
f 35/36/63 36/74/63 16/69/63
f 35/36/64 27/35/64 36/74/64
f 27/35/65 11/75/65 36/74/65
f 33/33/66 34/43/66 15/48/66
f 33/33/67 23/32/67 34/43/67
f 23/32/68 10/18/68 34/43/68
f 31/30/69 32/47/69 19/60/69
f 31/30/70 24/20/70 32/47/70
f 24/20/71 14/40/71 32/47/71
f 25/29/72 30/41/72 14/40/72
f 25/29/73 28/28/73 30/41/73
f 28/28/74 13/37/74 30/41/74
f 28/26/75 29/38/75 13/37/75
f 28/26/76 26/25/76 29/38/76
f 26/25/77 12/34/77 29/38/77
f 26/23/78 27/35/78 12/34/78
f 26/23/79 21/22/79 27/35/79
f 21/22/80 11/75/80 27/35/80
f 24/20/81 25/76/81 14/40/81
f 24/20/82 22/19/82 25/76/82
f 22/19/83 9/77/83 25/76/83
f 21/17/84 23/32/84 11/31/84
f 21/17/85 22/16/85 23/32/85
f 22/16/86 10/18/86 23/32/86
o Suzanne
v 0.437500 0.164062 0.765625
v -0.437500 0.164062 0.765625
v 0.500000 0.093750 0.687500
v -0.500000 0.093750 0.687500
v 0.546875 0.054688 0.578125
v -0.546875 0.054688 0.578125
v 0.351562 -0.023438 0.617188
v -0.351562 -0.023438 0.617188
v 0.351562 0.031250 0.718750
v -0.351562 0.031250 0.718750
v 0.351562 0.132812 0.781250
v -0.351562 0.132812 0.781250
v 0.273438 0.164062 0.796875
v -0.273438 0.164062 0.796875
v 0.203125 0.093750 0.742188
v -0.203125 0.093750 0.742188
v 0.156250 0.054688 0.648438
v -0.156250 0.054688 0.648438
v 0.078125 0.242188 0.656250
v -0.078125 0.242188 0.656250
v 0.140625 0.242188 0.742188
v -0.140625 0.242188 0.742188
v 0.242188 0.242188 0.796875
v -0.242188 0.242188 0.796875
v 0.273438 0.328125 0.796875
v -0.273438 0.328125 0.796875
v 0.203125 0.390625 0.742188
v -0.203125 0.390625 0.742188
v 0.156250 0.437500 0.648438
v -0.156250 0.437500 0.648438
v 0.351562 0.515625 0.617188
v -0.351562 0.515625 0.617188
v 0.351562 0.453125 0.718750
v -0.351562 0.453125 0.718750
v 0.351562 0.359375 0.781250
v -0.351562 0.359375 0.781250
v 0.437500 0.328125 0.765625
v -0.437500 0.328125 0.765625
v 0.500000 0.390625 0.687500
v -0.500000 0.390625 0.687500
v 0.546875 0.437500 0.578125
v -0.546875 0.437500 0.578125
v 0.625000 0.242188 0.562500
v -0.625000 0.242188 0.562500
v 0.562500 0.242188 0.671875
v -0.562500 0.242188 0.671875
v 0.468750 0.242188 0.757812
v -0.468750 0.242188 0.757812
v 0.476562 0.242188 0.773438
v -0.476562 0.242188 0.773438
v 0.445312 0.335938 0.781250
v -0.445312 0.335938 0.781250
v 0.351562 0.375000 0.804688
v -0.351562 0.375000 0.804688
v 0.265625 0.335938 0.820312
v -0.265625 0.335938 0.820312
v 0.226562 0.242188 0.820312
v -0.226562 0.242188 0.820312
v 0.265625 0.156250 0.820312
v -0.265625 0.156250 0.820312
v 0.351562 0.242188 0.828125
v -0.351562 0.242188 0.828125
v 0.351562 0.117188 0.804688
v -0.351562 0.117188 0.804688
v 0.445312 0.156250 0.781250
v -0.445312 0.156250 0.781250
v 0.000000 0.429688 0.742188
v 0.000000 0.351562 0.820312
v 0.000000 -0.679688 0.734375
v 0.000000 -0.320312 0.781250
v 0.000000 -0.187500 0.796875
v 0.000000 -0.773438 0.718750
v 0.000000 0.406250 0.601562
v 0.000000 0.570312 0.570312
v 0.000000 0.898438 -0.546875
v 0.000000 0.562500 -0.851562
v 0.000000 0.070312 -0.828125
v 0.000000 -0.382812 -0.351562
v 0.203125 -0.187500 0.562500
v -0.203125 -0.187500 0.562500
v 0.312500 -0.437500 0.570312
v -0.312500 -0.437500 0.570312
v 0.351562 -0.695312 0.570312
v -0.351562 -0.695312 0.570312
v 0.367188 -0.890625 0.531250
v -0.367188 -0.890625 0.531250
v 0.328125 -0.945312 0.523438
v -0.328125 -0.945312 0.523438
v 0.179688 -0.968750 0.554688
v -0.179688 -0.968750 0.554688
v 0.000000 -0.984375 0.578125
v 0.437500 -0.140625 0.531250
v -0.437500 -0.140625 0.531250
v 0.632812 -0.039062 0.539062
v -0.632812 -0.039062 0.539062
v 0.828125 0.148438 0.445312
v -0.828125 0.148438 0.445312
v 0.859375 0.429688 0.593750
v -0.859375 0.429688 0.593750
v 0.710938 0.484375 0.625000
v -0.710938 0.484375 0.625000
v 0.492188 0.601562 0.687500
v -0.492188 0.601562 0.687500
v 0.320312 0.757812 0.734375
v -0.320312 0.757812 0.734375
v 0.156250 0.718750 0.757812
v -0.156250 0.718750 0.757812
v 0.062500 0.492188 0.750000
v -0.062500 0.492188 0.750000
v 0.164062 0.414062 0.773438
v -0.164062 0.414062 0.773438
v 0.125000 0.304688 0.765625
v -0.125000 0.304688 0.765625
v 0.203125 0.093750 0.742188
v -0.203125 0.093750 0.742188
v 0.375000 0.015625 0.703125
v -0.375000 0.015625 0.703125
v 0.492188 0.062500 0.671875
v -0.492188 0.062500 0.671875
v 0.625000 0.187500 0.648438
v -0.625000 0.187500 0.648438
v 0.640625 0.296875 0.648438
v -0.640625 0.296875 0.648438
v 0.601562 0.375000 0.664062
v -0.601562 0.375000 0.664062
v 0.429688 0.437500 0.718750
v -0.429688 0.437500 0.718750
v 0.250000 0.468750 0.757812
v -0.250000 0.468750 0.757812
v 0.000000 -0.765625 0.734375
v 0.109375 -0.718750 0.734375
v -0.109375 -0.718750 0.734375
v 0.117188 -0.835938 0.710938
v -0.117188 -0.835938 0.710938
v 0.062500 -0.882812 0.695312
v -0.062500 -0.882812 0.695312
v 0.000000 -0.890625 0.687500
v 0.000000 -0.195312 0.750000
v 0.000000 -0.140625 0.742188
v 0.101562 -0.148438 0.742188
v -0.101562 -0.148438 0.742188
v 0.125000 -0.226562 0.750000
v -0.125000 -0.226562 0.750000
v 0.085938 -0.289062 0.742188
v -0.085938 -0.289062 0.742188
v 0.398438 -0.046875 0.671875
v -0.398438 -0.046875 0.671875
v 0.617188 0.054688 0.625000
v -0.617188 0.054688 0.625000
v 0.726562 0.203125 0.601562
v -0.726562 0.203125 0.601562
v 0.742188 0.375000 0.656250
v -0.742188 0.375000 0.656250
v 0.687500 0.414062 0.726562
v -0.687500 0.414062 0.726562
v 0.437500 0.546875 0.796875
v -0.437500 0.546875 0.796875
v 0.312500 0.640625 0.835938
v -0.312500 0.640625 0.835938
v 0.203125 0.617188 0.851562
v -0.203125 0.617188 0.851562
v 0.101562 0.429688 0.843750
v -0.101562 0.429688 0.843750
v 0.125000 -0.101562 0.812500
v -0.125000 -0.101562 0.812500
v 0.210938 -0.445312 0.710938
v -0.210938 -0.445312 0.710938
v 0.250000 -0.703125 0.687500
v -0.250000 -0.703125 0.687500
v 0.265625 -0.820312 0.664062
v -0.265625 -0.820312 0.664062
v 0.234375 -0.914062 0.632812
v -0.234375 -0.914062 0.632812
v 0.164062 -0.929688 0.632812
v -0.164062 -0.929688 0.632812
v 0.000000 -0.945312 0.640625
v 0.000000 0.046875 0.726562
v 0.000000 0.210938 0.765625
v 0.328125 0.476562 0.742188
v -0.328125 0.476562 0.742188
v 0.164062 0.140625 0.750000
v -0.164062 0.140625 0.750000
v 0.132812 0.210938 0.757812
v -0.132812 0.210938 0.757812
v 0.117188 -0.687500 0.734375
v -0.117188 -0.687500 0.734375
v 0.078125 -0.445312 0.750000
v -0.078125 -0.445312 0.750000
v 0.000000 -0.445312 0.750000
v 0.000000 -0.328125 0.742188
v 0.093750 -0.273438 0.781250
v -0.093750 -0.273438 0.781250
v 0.132812 -0.226562 0.796875
v -0.132812 -0.226562 0.796875
v 0.109375 -0.132812 0.781250
v -0.109375 -0.132812 0.781250
v 0.039062 -0.125000 0.781250
v -0.039062 -0.125000 0.781250
v 0.000000 -0.203125 0.828125
v 0.046875 -0.148438 0.812500
v -0.046875 -0.148438 0.812500
v 0.093750 -0.156250 0.812500
v -0.093750 -0.156250 0.812500
v 0.109375 -0.226562 0.828125
v -0.109375 -0.226562 0.828125
v 0.078125 -0.250000 0.804688
v -0.078125 -0.250000 0.804688
v 0.000000 -0.289062 0.804688
v 0.257812 -0.312500 0.554688
v -0.257812 -0.312500 0.554688
v 0.164062 -0.242188 0.710938
v -0.164062 -0.242188 0.710938
v 0.179688 -0.312500 0.710938
v -0.179688 -0.312500 0.710938
v 0.234375 -0.250000 0.554688
v -0.234375 -0.250000 0.554688
v 0.000000 -0.875000 0.687500
v 0.046875 -0.867188 0.687500
v -0.046875 -0.867188 0.687500
v 0.093750 -0.820312 0.710938
v -0.093750 -0.820312 0.710938
v 0.093750 -0.742188 0.726562
v -0.093750 -0.742188 0.726562
v 0.000000 -0.781250 0.656250
v 0.093750 -0.750000 0.664062
v -0.093750 -0.750000 0.664062
v 0.093750 -0.812500 0.640625
v -0.093750 -0.812500 0.640625
v 0.046875 -0.851562 0.632812
v -0.046875 -0.851562 0.632812
v 0.000000 -0.859375 0.632812
v 0.171875 0.218750 0.781250
v -0.171875 0.218750 0.781250
v 0.187500 0.156250 0.773438
v -0.187500 0.156250 0.773438
v 0.335938 0.429688 0.757812
v -0.335938 0.429688 0.757812
v 0.273438 0.421875 0.773438
v -0.273438 0.421875 0.773438
v 0.421875 0.398438 0.773438
v -0.421875 0.398438 0.773438
v 0.562500 0.351562 0.695312
v -0.562500 0.351562 0.695312
v 0.585938 0.289062 0.687500
v -0.585938 0.289062 0.687500
v 0.578125 0.195312 0.679688
v -0.578125 0.195312 0.679688
v 0.476562 0.101562 0.718750
v -0.476562 0.101562 0.718750
v 0.375000 0.062500 0.742188
v -0.375000 0.062500 0.742188
v 0.226562 0.109375 0.781250
v -0.226562 0.109375 0.781250
v 0.179688 0.296875 0.781250
v -0.179688 0.296875 0.781250
v 0.210938 0.375000 0.781250
v -0.210938 0.375000 0.781250
v 0.234375 0.359375 0.757812
v -0.234375 0.359375 0.757812
v 0.195312 0.296875 0.757812
v -0.195312 0.296875 0.757812
v 0.242188 0.125000 0.757812
v -0.242188 0.125000 0.757812
v 0.375000 0.085938 0.726562
v -0.375000 0.085938 0.726562
v 0.460938 0.117188 0.703125
v -0.460938 0.117188 0.703125
v 0.546875 0.210938 0.671875
v -0.546875 0.210938 0.671875
v 0.554688 0.281250 0.671875
v -0.554688 0.281250 0.671875
v 0.531250 0.335938 0.679688
v -0.531250 0.335938 0.679688
v 0.414062 0.390625 0.750000
v -0.414062 0.390625 0.750000
v 0.281250 0.398438 0.765625
v -0.281250 0.398438 0.765625
v 0.335938 0.406250 0.750000
v -0.335938 0.406250 0.750000
v 0.203125 0.171875 0.750000
v -0.203125 0.171875 0.750000
v 0.195312 0.226562 0.750000
v -0.195312 0.226562 0.750000
v 0.109375 0.460938 0.609375
v -0.109375 0.460938 0.609375
v 0.195312 0.664062 0.617188
v -0.195312 0.664062 0.617188
v 0.335938 0.687500 0.593750
v -0.335938 0.687500 0.593750
v 0.484375 0.554688 0.554688
v -0.484375 0.554688 0.554688
v 0.679688 0.453125 0.492188
v -0.679688 0.453125 0.492188
v 0.796875 0.406250 0.460938
v -0.796875 0.406250 0.460938
v 0.773438 0.164062 0.375000
v -0.773438 0.164062 0.375000
v 0.601562 0.000000 0.414062
v -0.601562 0.000000 0.414062
v 0.437500 -0.093750 0.468750
v -0.437500 -0.093750 0.468750
v 0.000000 0.898438 0.289062
v 0.000000 0.984375 -0.078125
v 0.000000 -0.195312 -0.671875
v 0.000000 -0.460938 0.187500
v 0.000000 -0.976562 0.460938
v 0.000000 -0.804688 0.343750
v 0.000000 -0.570312 0.320312
v 0.000000 -0.484375 0.281250
v 0.851562 0.234375 0.054688
v -0.851562 0.234375 0.054688
v 0.859375 0.320312 -0.046875
v -0.859375 0.320312 -0.046875
v 0.773438 0.265625 -0.437500
v -0.773438 0.265625 -0.437500
v 0.460938 0.437500 -0.703125
v -0.460938 0.437500 -0.703125
v 0.734375 -0.046875 0.070312
v -0.734375 -0.046875 0.070312
v 0.593750 -0.125000 -0.164062
v -0.593750 -0.125000 -0.164062
v 0.640625 -0.007812 -0.429688
v -0.640625 -0.007812 -0.429688
v 0.335938 0.054688 -0.664062
v -0.335938 0.054688 -0.664062
v 0.234375 -0.351562 0.406250
v -0.234375 -0.351562 0.406250
v 0.179688 -0.414062 0.257812
v -0.179688 -0.414062 0.257812
v 0.289062 -0.710938 0.382812
v -0.289062 -0.710938 0.382812
v 0.250000 -0.500000 0.390625
v -0.250000 -0.500000 0.390625
v 0.328125 -0.914062 0.398438
v -0.328125 -0.914062 0.398438
v 0.140625 -0.757812 0.367188
v -0.140625 -0.757812 0.367188
v 0.125000 -0.539062 0.359375
v -0.125000 -0.539062 0.359375
v 0.164062 -0.945312 0.437500
v -0.164062 -0.945312 0.437500
v 0.218750 -0.281250 0.429688
v -0.218750 -0.281250 0.429688
v 0.210938 -0.226562 0.468750
v -0.210938 -0.226562 0.468750
v 0.203125 -0.171875 0.500000
v -0.203125 -0.171875 0.500000
v 0.210938 -0.390625 0.164062
v -0.210938 -0.390625 0.164062
v 0.296875 -0.312500 -0.265625
v -0.296875 -0.312500 -0.265625
v 0.343750 -0.148438 -0.539062
v -0.343750 -0.148438 -0.539062
v 0.453125 0.867188 -0.382812
v -0.453125 0.867188 -0.382812
v 0.453125 0.929688 -0.070312
v -0.453125 0.929688 -0.070312
v 0.453125 0.851562 0.234375
v -0.453125 0.851562 0.234375
v 0.460938 0.523438 0.429688
v -0.460938 0.523438 0.429688
v 0.726562 0.406250 0.335938
v -0.726562 0.406250 0.335938
v 0.632812 0.453125 0.281250
v -0.632812 0.453125 0.281250
v 0.640625 0.703125 0.054688
v -0.640625 0.703125 0.054688
v 0.796875 0.562500 0.125000
v -0.796875 0.562500 0.125000
v 0.796875 0.617188 -0.117188
v -0.796875 0.617188 -0.117188
v 0.640625 0.750000 -0.195312
v -0.640625 0.750000 -0.195312
v 0.640625 0.679688 -0.445312
v -0.640625 0.679688 -0.445312
v 0.796875 0.539062 -0.359375
v -0.796875 0.539062 -0.359375
v 0.617188 0.328125 -0.585938
v -0.617188 0.328125 -0.585938
v 0.484375 0.023438 -0.546875
v -0.484375 0.023438 -0.546875
v 0.820312 0.328125 -0.203125
v -0.820312 0.328125 -0.203125
v 0.406250 -0.171875 0.148438
v -0.406250 -0.171875 0.148438
v 0.429688 -0.195312 -0.210938
v -0.429688 -0.195312 -0.210938
v 0.890625 0.406250 -0.234375
v -0.890625 0.406250 -0.234375
v 0.773438 -0.140625 -0.125000
v -0.773438 -0.140625 -0.125000
v 1.039062 -0.101562 -0.328125
v -1.039062 -0.101562 -0.328125
v 1.281250 0.054688 -0.429688
v -1.281250 0.054688 -0.429688
v 1.351562 0.320312 -0.421875
v -1.351562 0.320312 -0.421875
v 1.234375 0.507812 -0.421875
v -1.234375 0.507812 -0.421875
v 1.023438 0.476562 -0.312500
v -1.023438 0.476562 -0.312500
v 1.015625 0.414062 -0.289062
v -1.015625 0.414062 -0.289062
v 1.187500 0.437500 -0.390625
v -1.187500 0.437500 -0.390625
v 1.265625 0.289062 -0.406250
v -1.265625 0.289062 -0.406250
v 1.210938 0.078125 -0.406250
v -1.210938 0.078125 -0.406250
v 1.031250 -0.039062 -0.304688
v -1.031250 -0.039062 -0.304688
v 0.828125 -0.070312 -0.132812
v -0.828125 -0.070312 -0.132812
v 0.921875 0.359375 -0.218750
v -0.921875 0.359375 -0.218750
v 0.945312 0.304688 -0.289062
v -0.945312 0.304688 -0.289062
v 0.882812 -0.023438 -0.210938
v -0.882812 -0.023438 -0.210938
v 1.039062 0.000000 -0.367188
v -1.039062 0.000000 -0.367188
v 1.187500 0.093750 -0.445312
v -1.187500 0.093750 -0.445312
v 1.234375 0.250000 -0.445312
v -1.234375 0.250000 -0.445312
v 1.171875 0.359375 -0.437500
v -1.171875 0.359375 -0.437500
v 1.023438 0.343750 -0.359375
v -1.023438 0.343750 -0.359375
v 0.843750 0.289062 -0.210938
v -0.843750 0.289062 -0.210938
v 0.835938 0.171875 -0.273438
v -0.835938 0.171875 -0.273438
v 0.757812 0.093750 -0.273438
v -0.757812 0.093750 -0.273438
v 0.820312 0.085938 -0.273438
v -0.820312 0.085938 -0.273438
v 0.843750 0.015625 -0.273438
v -0.843750 0.015625 -0.273438
v 0.812500 -0.015625 -0.273438
v -0.812500 -0.015625 -0.273438
v 0.726562 0.000000 -0.070312
v -0.726562 0.000000 -0.070312
v 0.718750 -0.023438 -0.171875
v -0.718750 -0.023438 -0.171875
v 0.718750 0.039062 -0.187500
v -0.718750 0.039062 -0.187500
v 0.796875 0.203125 -0.210938
v -0.796875 0.203125 -0.210938
v 0.890625 0.242188 -0.265625
v -0.890625 0.242188 -0.265625
v 0.890625 0.234375 -0.320312
v -0.890625 0.234375 -0.320312
v 0.812500 -0.015625 -0.320312
v -0.812500 -0.015625 -0.320312
v 0.851562 0.015625 -0.320312
v -0.851562 0.015625 -0.320312
v 0.828125 0.078125 -0.320312
v -0.828125 0.078125 -0.320312
v 0.765625 0.093750 -0.320312
v -0.765625 0.093750 -0.320312
v 0.843750 0.171875 -0.320312
v -0.843750 0.171875 -0.320312
v 1.039062 0.328125 -0.414062
v -1.039062 0.328125 -0.414062
v 1.187500 0.343750 -0.484375
v -1.187500 0.343750 -0.484375
v 1.257812 0.242188 -0.492188
v -1.257812 0.242188 -0.492188
v 1.210938 0.085938 -0.484375
v -1.210938 0.085938 -0.484375
v 1.046875 0.000000 -0.421875
v -1.046875 0.000000 -0.421875
v 0.882812 -0.015625 -0.265625
v -0.882812 -0.015625 -0.265625
v 0.953125 0.289062 -0.343750
v -0.953125 0.289062 -0.343750
v 0.890625 0.109375 -0.328125
v -0.890625 0.109375 -0.328125
v 0.937500 0.062500 -0.335938
v -0.937500 0.062500 -0.335938
v 1.000000 0.125000 -0.367188
v -1.000000 0.125000 -0.367188
v 0.960938 0.171875 -0.351562
v -0.960938 0.171875 -0.351562
v 1.015625 0.234375 -0.375000
v -1.015625 0.234375 -0.375000
v 1.054688 0.187500 -0.382812
v -1.054688 0.187500 -0.382812
v 1.109375 0.210938 -0.390625
v -1.109375 0.210938 -0.390625
v 1.085938 0.273438 -0.390625
v -1.085938 0.273438 -0.390625
v 1.023438 0.437500 -0.484375
v -1.023438 0.437500 -0.484375
v 1.250000 0.468750 -0.546875
v -1.250000 0.468750 -0.546875
v 1.367188 0.296875 -0.500000
v -1.367188 0.296875 -0.500000
v 1.312500 0.054688 -0.531250
v -1.312500 0.054688 -0.531250
v 1.039062 -0.085938 -0.492188
v -1.039062 -0.085938 -0.492188
v 0.789062 -0.125000 -0.328125
v -0.789062 -0.125000 -0.328125
v 0.859375 0.382812 -0.382812
v -0.859375 0.382812 -0.382812
vn 0.6650 -0.2008 0.7194
vn -0.6650 -0.2008 0.7194
vn 0.8294 -0.3036 0.4689
vn -0.8294 -0.3036 0.4689
vn 0.4155 -0.7933 0.4449
vn -0.4155 -0.7933 0.4449
vn 0.3600 -0.5089 0.7820
vn -0.3600 -0.5089 0.7820
vn -0.0787 -0.5394 0.8384
vn 0.0787 -0.5394 0.8384
vn -0.2696 -0.8413 0.4685
vn 0.2696 -0.8413 0.4685
vn -0.7707 -0.3352 0.5420
vn 0.7707 -0.3352 0.5420
vn -0.4689 -0.1940 0.8617
vn 0.4689 -0.1940 0.8617
vn -0.4767 0.1907 0.8581
vn 0.4767 0.1907 0.8581
vn -0.7672 0.3264 0.5521
vn 0.7672 0.3264 0.5521
vn -0.2519 0.8173 0.5182
vn 0.2519 0.8173 0.5182
vn -0.0949 0.5696 0.8164
vn 0.0949 0.5696 0.8164
vn 0.3667 0.5370 0.7597
vn -0.3667 0.5370 0.7597
vn 0.4141 0.7672 0.4898
vn -0.4141 0.7672 0.4898
vn 0.8277 0.2952 0.4771
vn -0.8277 0.2952 0.4771
vn 0.6713 0.1971 0.7145
vn -0.6713 0.1971 0.7145
vn 0.8111 0.3244 -0.4867
vn -0.8111 0.3244 -0.4867
vn 0.2052 0.8206 -0.5334
vn -0.2052 0.8206 -0.5334
vn -0.4223 0.7806 -0.4607
vn 0.4223 0.7806 -0.4607
vn -0.8241 0.3225 -0.4658
vn 0.8241 0.3225 -0.4658
vn -0.8137 -0.3487 -0.4650
vn 0.8137 -0.3487 -0.4650
vn -0.4223 -0.7806 -0.4607
vn 0.4223 -0.7806 -0.4607
vn 0.2052 -0.8206 -0.5334
vn -0.2052 -0.8206 -0.5334
vn 0.7995 -0.3510 -0.4875
vn -0.7995 -0.3510 -0.4875
vn 0.4000 -0.0623 0.9144
vn -0.4000 -0.0623 0.9144
vn 0.3069 -0.1754 0.9354
vn -0.3069 -0.1754 0.9354
vn 0.0945 -0.1835 0.9785
vn -0.0945 -0.1835 0.9785
vn -0.0624 -0.0283 0.9977
vn 0.0624 -0.0283 0.9977
vn -0.0624 0.0260 0.9977
vn 0.0624 0.0260 0.9977
vn 0.0996 0.1729 0.9799
vn -0.0996 0.1729 0.9799
vn 0.3036 0.1656 0.9383
vn -0.3036 0.1656 0.9383
vn 0.4002 0.0572 0.9147
vn -0.4002 0.0572 0.9147
vn 0.1231 -0.8616 0.4924
vn -0.1231 -0.8616 0.4924
vn 0.2190 -0.8647 0.4520
vn -0.2190 -0.8647 0.4520
vn 0.5902 -0.4550 0.6668
vn -0.5902 -0.4550 0.6668
vn 0.7689 -0.0506 0.6374
vn -0.7689 -0.0506 0.6374
vn 0.7796 0.0900 0.6197
vn -0.7796 0.0900 0.6197
vn 0.3241 -0.8188 0.4739
vn -0.3241 -0.8188 0.4739
vn 0.3857 -0.6629 0.6417
vn -0.3857 -0.6629 0.6417
vn 0.6895 -0.4193 0.5906
vn -0.6895 -0.4193 0.5906
vn 0.6588 -0.3634 0.6588
vn -0.6588 -0.3634 0.6588
vn 0.5465 0.3707 0.7509
vn -0.5465 0.3707 0.7509
vn 0.5064 0.6464 0.5706
vn -0.5064 0.6464 0.5706
vn 0.6092 0.5167 0.6015
vn -0.6092 0.5167 0.6015
vn -0.0441 0.6610 0.7491
vn 0.0441 0.6610 0.7491
vn -0.7246 0.3187 0.6110
vn 0.7246 0.3187 0.6110
vn -0.5880 0.5554 0.5880
vn 0.5880 0.5554 0.5880
vn 0.5361 -0.3909 0.7482
vn -0.5361 -0.3909 0.7482
vn 0.2207 -0.4690 0.8552
vn -0.2207 -0.4690 0.8552
vn -0.0794 -0.5321 0.8429
vn 0.0794 -0.5321 0.8429
vn -0.0825 -0.6575 0.7490
vn 0.0825 -0.6575 0.7490
vn 0.0457 -0.5667 0.8226
vn -0.0457 -0.5667 0.8226
vn 0.2784 -0.2130 0.9365
vn -0.2784 -0.2130 0.9365
vn 0.3813 -0.1824 0.9063
vn -0.3813 -0.1824 0.9063
vn 0.3357 -0.2878 0.8969
vn -0.3357 -0.2878 0.8969
vn 0.3762 0.0603 0.9246
vn -0.3762 0.0603 0.9246
vn -0.1352 0.2680 0.9539
vn 0.1352 0.2680 0.9539
vn 0.3961 -0.4321 0.8102
vn -0.3961 -0.4321 0.8102
vn 0.1856 -0.2474 0.9510
vn -0.1856 -0.2474 0.9510
vn 0.0099 -0.1948 0.9808
vn -0.0099 -0.1948 0.9808
vn 0.0721 -0.6966 0.7138
vn -0.0721 -0.6966 0.7138
vn 0.1863 -0.5723 0.7986
vn -0.1863 -0.5723 0.7986
vn 0.3157 -0.2708 0.9094
vn -0.3157 -0.2708 0.9094
vn 0.3063 -0.0265 0.9516
vn -0.3063 -0.0265 0.9516
vn 0.3266 -0.1306 0.9361
vn -0.3266 -0.1306 0.9361
vn -0.0137 0.0574 0.9983
vn 0.0137 0.0574 0.9983
vn -0.0026 -0.0656 0.9978
vn 0.0026 -0.0656 0.9978
vn -0.0000 -0.0000 1.0000
vn 0.8174 -0.5744 -0.0442
vn -0.8174 -0.5744 -0.0442
vn 0.9494 0.2297 -0.2144
vn -0.9494 0.2297 -0.2144
vn 0.0825 0.9073 -0.4124
vn -0.0825 0.9073 -0.4124
vn -0.8836 0.3555 0.3047
vn 0.8836 0.3555 0.3047
vn 0.4207 -0.8797 0.2218
vn -0.4207 -0.8797 0.2218
vn 0.2873 -0.5747 0.7663
vn -0.2873 -0.5747 0.7663
vn -0.6542 0.6019 0.4580
vn 0.6542 0.6019 0.4580
vn 0.1052 0.7892 0.6051
vn -0.1052 0.7892 0.6051
vn 0.7582 0.2916 0.5832
vn -0.7582 0.2916 0.5832
vn 0.3889 -0.7130 0.5834
vn -0.3889 -0.7130 0.5834
vn 0.0463 0.2314 0.9718
vn -0.0463 0.2314 0.9718
vn 0.0335 -0.4018 0.9151
vn -0.0335 -0.4018 0.9151
vn -0.4452 -0.1610 0.8809
vn 0.4452 -0.1610 0.8809
vn -0.2182 -0.4364 0.8729
vn 0.2182 -0.4364 0.8729
vn 0.4341 -0.1290 0.8916
vn -0.4341 -0.1290 0.8916
vn 0.3008 0.0501 0.9524
vn -0.3008 0.0501 0.9524
vn 0.8123 0.3010 0.4996
vn -0.8123 0.3010 0.4996
vn 0.8753 0.2574 0.4093
vn -0.8753 0.2574 0.4093
vn 0.9385 0.1601 0.3060
vn -0.9385 0.1601 0.3060
vn 0.2237 -0.6539 0.7227
vn -0.2237 -0.6539 0.7227
vn -0.1536 -0.1997 0.9677
vn 0.1536 -0.1997 0.9677
vn -0.2733 -0.1025 0.9565
vn 0.2733 -0.1025 0.9565
vn -0.0976 0.1952 0.9759
vn 0.0976 0.1952 0.9759
vn -0.1582 0.9494 0.2713
vn 0.1582 0.9494 0.2713
vn -0.6934 0.7082 0.1328
vn 0.6934 0.7082 0.1328
vn -1.0000 -0.0000 -0.0000
vn 1.0000 -0.0000 -0.0000
vn 0.3051 -0.9450 0.1181
vn -0.3051 -0.9450 0.1181
vn 0.0298 -0.2981 0.9541
vn -0.0298 -0.2981 0.9541
vn 0.1353 -0.3479 0.9277
vn -0.1353 -0.3479 0.9277
vn -0.5085 -0.2755 0.8158
vn 0.5085 -0.2755 0.8158
vn -0.3843 -0.0419 0.9223
vn 0.3843 -0.0419 0.9223
vn -0.2083 0.0374 0.9774
vn 0.2083 0.0374 0.9774
vn -0.5721 -0.4767 0.6674
vn 0.5721 -0.4767 0.6674
vn -0.1369 -0.7531 0.6435
vn 0.1369 -0.7531 0.6435
vn 0.4088 -0.6071 0.6814
vn -0.4088 -0.6071 0.6814
vn 0.5740 -0.4130 0.7070
vn -0.5740 -0.4130 0.7070
vn 0.5665 -0.0968 0.8183
vn -0.5665 -0.0968 0.8183
vn 0.5703 0.1180 0.8129
vn -0.5703 0.1180 0.8129
vn 0.4823 0.5621 0.6719
vn -0.4823 0.5621 0.6719
vn 0.2604 0.6114 0.7473
vn -0.2604 0.6114 0.7473
vn 0.1640 0.3607 0.9182
vn -0.1640 0.3607 0.9182
vn -0.0178 0.2495 0.9682
vn 0.0178 0.2495 0.9682
vn 0.3273 -0.4166 0.8481
vn -0.3273 -0.4166 0.8481
vn 0.2811 -0.2610 0.9235
vn -0.2811 -0.2610 0.9235
vn -0.2542 -0.6514 0.7149
vn 0.2542 -0.6514 0.7149
vn -0.0260 -0.8455 0.5333
vn 0.0260 -0.8455 0.5333
vn -0.3518 -0.2606 0.8991
vn 0.3518 -0.2606 0.8991
vn -0.3523 -0.0110 0.9358
vn 0.3523 -0.0110 0.9358
vn -0.1317 0.4608 0.8777
vn 0.1317 0.4608 0.8777
vn -0.0342 0.6159 0.7870
vn 0.0342 0.6159 0.7870
vn 0.3603 0.5836 0.7277
vn -0.3603 0.5836 0.7277
vn 0.4988 0.5300 0.6858
vn -0.4988 0.5300 0.6858
vn 0.6667 -0.3333 0.6667
vn -0.6667 -0.3333 0.6667
vn 0.8165 -0.0731 0.5727
vn -0.8165 -0.0731 0.5727
vn 0.7840 0.1161 0.6098
vn -0.7840 0.1161 0.6098
vn -0.5306 0.8111 -0.2461
vn 0.5306 0.8111 -0.2461
vn -0.8511 0.3695 -0.3730
vn 0.8511 0.3695 -0.3730
vn -0.2446 0.8675 -0.4331
vn 0.2446 0.8675 -0.4331
vn 0.5924 0.7465 -0.3030
vn -0.5924 0.7465 -0.3030
vn 0.3685 0.8758 -0.3118
vn -0.3685 0.8758 -0.3118
vn 0.2821 0.9151 -0.2880
vn -0.2821 0.9151 -0.2880
vn 0.8561 0.1340 -0.4991
vn -0.8561 0.1340 -0.4991
vn 0.5342 -0.7233 -0.4376
vn -0.5342 -0.7233 -0.4376
vn 0.3849 -0.8131 -0.4368
vn -0.3849 -0.8131 -0.4368
vn 0.2335 -0.5806 -0.7800
vn -0.2335 -0.5806 -0.7800
vn 0.2449 -0.0583 -0.9678
vn -0.2449 -0.0583 -0.9678
vn 0.1163 -0.4535 -0.8837
vn -0.1163 -0.4535 -0.8837
vn 0.1152 -0.9836 -0.1388
vn -0.1152 -0.9836 -0.1388
vn 0.1184 -0.9669 -0.2260
vn -0.1184 -0.9669 -0.2260
vn 0.9597 -0.0085 -0.2808
vn -0.9597 -0.0085 -0.2808
vn 0.9319 0.1629 -0.3242
vn -0.9319 0.1629 -0.3242
vn 0.1626 0.0207 -0.9865
vn -0.1626 0.0207 -0.9865
vn -0.0188 -0.2177 -0.9758
vn 0.0188 -0.2177 -0.9758
vn 0.7538 -0.2926 -0.5884
vn -0.7538 -0.2926 -0.5884
vn 0.9196 0.1379 -0.3678
vn -0.9196 0.1379 -0.3678
vn 0.9297 0.3127 -0.1944
vn -0.9297 0.3127 -0.1944
vn 0.9120 0.3376 -0.2329
vn -0.9120 0.3376 -0.2329
vn 0.9407 0.3338 -0.0607
vn -0.9407 0.3338 -0.0607
vn 0.1761 -0.8805 -0.4402
vn -0.1761 -0.8805 -0.4402
vn 0.3708 -0.4733 -0.7991
vn -0.3708 -0.4733 -0.7991
vn 0.3107 -0.8284 -0.4660
vn -0.3107 -0.8284 -0.4660
vn 0.2793 -0.9515 -0.1287
vn -0.2793 -0.9515 -0.1287
vn 0.3139 -0.9321 -0.1807
vn -0.3139 -0.9321 -0.1807
vn 0.9762 -0.2083 -0.0609
vn -0.9762 -0.2083 -0.0609
vn 0.8267 -0.5066 0.2447
vn -0.8267 -0.5066 0.2447
vn 0.3449 -0.1158 -0.9315
vn -0.3449 -0.1158 -0.9315
vn 0.1203 0.9644 0.2355
vn -0.1203 0.9644 0.2355
vn 0.1275 0.9744 -0.1851
vn -0.1275 0.9744 -0.1851
vn 0.3492 0.5947 -0.7241
vn -0.3492 0.5947 -0.7241
vn 0.4153 0.8981 -0.1449
vn -0.4153 0.8981 -0.1449
vn 0.1845 0.7036 0.6863
vn -0.1845 0.7036 0.6863
vn 0.6056 0.7794 0.1608
vn -0.6056 0.7794 0.1608
vn 0.7033 0.6806 -0.2053
vn -0.7033 0.6806 -0.2053
vn 0.6679 0.2007 -0.7166
vn -0.6679 0.2007 -0.7166
vn 0.4948 0.4342 -0.7528
vn -0.4948 0.4342 -0.7528
vn 0.6423 0.7459 -0.1761
vn -0.6423 0.7459 -0.1761
vn 0.7182 0.6788 0.1530
vn -0.7182 0.6788 0.1530
vn 0.7388 0.3972 0.5444
vn -0.7388 0.3972 0.5444
vn 0.3428 0.9261 -0.1579
vn -0.3428 0.9261 -0.1579
vn 0.2270 0.5740 0.7867
vn -0.2270 0.5740 0.7867
vn -0.1722 0.1046 -0.9795
vn 0.1722 0.1046 -0.9795
vn 0.0425 0.9150 0.4013
vn -0.0425 0.9150 0.4013
vn -0.1616 0.1847 0.9694
vn 0.1616 0.1847 0.9694
vn 0.9791 0.1973 0.0483
vn -0.9791 0.1973 0.0483
vn 0.9470 0.0918 0.3079
vn -0.9470 0.0918 0.3079
vn 0.9794 0.1905 -0.0661
vn -0.9794 0.1905 -0.0661
vn 0.9938 0.0312 -0.1070
vn -0.9938 0.0312 -0.1070
vn 0.7116 -0.7008 0.0501
vn -0.7116 -0.7008 0.0501
vn 0.3722 -0.9243 0.0847
vn -0.3722 -0.9243 0.0847
vn 0.4465 -0.8644 0.2310
vn -0.4465 -0.8644 0.2310
vn 0.6066 -0.7578 0.2405
vn -0.6066 -0.7578 0.2405
vn 0.7325 -0.6368 0.2407
vn -0.7325 -0.6368 0.2407
vn 0.2637 -0.4499 0.8533
vn -0.2637 -0.4499 0.8533
vn 0.5568 -0.3181 -0.7673
vn -0.5568 -0.3181 -0.7673
vn 0.5004 -0.2807 -0.8190
vn -0.5004 -0.2807 -0.8190
vn 0.3190 -0.8494 -0.4205
vn -0.3190 -0.8494 -0.4205
vn 0.7198 -0.6356 -0.2793
vn -0.7198 -0.6356 -0.2793
vn 0.4972 -0.4408 -0.7473
vn -0.4972 -0.4408 -0.7473
vn 0.3506 0.3807 0.8557
vn -0.3506 0.3807 0.8557
vn 0.4566 0.1715 0.8730
vn -0.4566 0.1715 0.8730
vn 0.2583 0.1055 0.9603
vn -0.2583 0.1055 0.9603
vn 0.2455 -0.0802 0.9661
vn -0.2455 -0.0802 0.9661
vn 0.4643 -0.0599 0.8837
vn -0.4643 -0.0599 0.8837
vn 0.6225 -0.3045 0.7210
vn -0.6225 -0.3045 0.7210
vn 0.4500 0.6590 0.6027
vn -0.4500 0.6590 0.6027
vn -0.2667 0.8309 0.4884
vn 0.2667 0.8309 0.4884
vn -0.8284 0.2291 0.5111
vn 0.8284 0.2291 0.5111
vn -0.5251 -0.3566 0.7727
vn 0.5251 -0.3566 0.7727
vn 0.4546 -0.5665 0.6873
vn -0.4546 -0.5665 0.6873
vn 0.6996 -0.4497 0.5552
vn -0.6996 -0.4497 0.5552
vn 0.7220 -0.6827 -0.1126
vn -0.7220 -0.6827 -0.1126
vn -0.1919 0.2860 0.9388
vn 0.1919 0.2860 0.9388
vn 0.9048 -0.3734 -0.2047
vn -0.9048 -0.3734 -0.2047
vn 0.1034 0.1551 0.9825
vn -0.1034 0.1551 0.9825
vn 0.0841 0.9318 0.3530
vn -0.0841 0.9318 0.3530
vn 0.6446 -0.0883 0.7594
vn -0.6446 -0.0883 0.7594
vn 0.4309 0.4740 0.7678
vn -0.4309 0.4740 0.7678
vn 0.8032 -0.4847 0.3462
vn -0.8032 -0.4847 0.3462
vn 0.5811 -0.4128 0.7014
vn -0.5811 -0.4128 0.7014
vn 0.5910 -0.4305 0.6822
vn -0.5910 -0.4305 0.6822
vn 0.9818 -0.1804 -0.0591
vn -0.9818 -0.1804 -0.0591
vn 0.9105 -0.3965 -0.1175
vn -0.9105 -0.3965 -0.1175
vn 0.9972 -0.0181 -0.0725
vn -0.9972 -0.0181 -0.0725
vn 0.7313 -0.6543 0.1925
vn -0.7313 -0.6543 0.1925
vn 0.7867 -0.6079 0.1073
vn -0.7867 -0.6079 0.1073
vn 0.7022 -0.7022 0.1170
vn -0.7022 -0.7022 0.1170
vn 0.1840 0.9816 -0.0511
vn -0.1840 0.9816 -0.0511
vn 0.9352 0.3301 0.1284
vn -0.9352 0.3301 0.1284
vn 0.6633 -0.7463 0.0553
vn -0.6633 -0.7463 0.0553
vn -0.0085 0.9970 0.0767
vn 0.0085 0.9970 0.0767
vn 0.6237 -0.7061 0.3354
vn -0.6237 -0.7061 0.3354
vn 0.2733 -0.8925 0.3587
vn -0.2733 -0.8925 0.3587
vn -0.8328 -0.5080 -0.2200
vn 0.8328 -0.5080 -0.2200
vn -0.8339 0.2377 -0.4981
vn 0.8339 0.2377 -0.4981
vn -0.5655 0.7847 -0.2539
vn 0.5655 0.7847 -0.2539
vn -0.0560 0.9962 0.0672
vn 0.0560 0.9962 0.0672
vn 0.1445 0.0222 0.9893
vn -0.1445 0.0222 0.9893
vn 0.3275 0.0645 0.9427
vn -0.3275 0.0645 0.9427
vn 0.3127 0.0232 0.9496
vn -0.3127 0.0232 0.9496
vn 0.1710 0.0274 0.9849
vn -0.1710 0.0274 0.9849
vn 0.3487 0.2849 0.8929
vn -0.3487 0.2849 0.8929
vn 0.4006 -0.0343 0.9156
vn -0.4006 -0.0343 0.9156
vn 0.2572 -0.0603 0.9645
vn -0.2572 -0.0603 0.9645
vn 0.0637 -0.0106 0.9979
vn -0.0637 -0.0106 0.9979
vn -0.3637 0.7039 0.6101
vn 0.3637 0.7039 0.6101
vn 0.6299 0.0355 0.7759
vn -0.6299 0.0355 0.7759
vn 0.4472 -0.2002 0.8717
vn -0.4472 -0.2002 0.8717
vn 0.5072 -0.2141 0.8348
vn -0.5072 -0.2141 0.8348
vn 0.5258 0.2619 0.8093
vn -0.5258 0.2619 0.8093
vn 0.2980 0.5802 0.7580
vn -0.2980 0.5802 0.7580
vn 0.0930 -0.9924 -0.0805
vn -0.0930 -0.9924 -0.0805
vn 0.5006 -0.8657 0.0080
vn -0.5006 -0.8657 0.0080
vn 0.9285 -0.2497 0.2748
vn -0.9285 -0.2497 0.2748
vn 0.8393 0.5424 -0.0378
vn -0.8393 0.5424 -0.0378
vn -0.2355 0.9367 -0.2589
vn 0.2355 0.9367 -0.2589
vn -0.4499 0.8838 -0.1285
vn 0.4499 0.8838 -0.1285
vn -0.5384 -0.0098 -0.8427
vn 0.5384 -0.0098 -0.8427
vn -0.1910 -0.0241 -0.9813
vn 0.1910 -0.0241 -0.9813
vn 0.4046 0.0266 -0.9141
vn -0.4046 0.0266 -0.9141
vn -0.7819 0.6231 0.0197
vn 0.7819 0.6231 0.0197
vn 0.5428 -0.2063 -0.8142
vn -0.5428 -0.2063 -0.8142
vn -0.2474 -0.9231 -0.2945
vn 0.2474 -0.9231 -0.2945
vt 0.843250 0.588863
vt 0.833697 0.611927
vt 0.794218 0.611927
vt 0.815334 0.560948
vt 0.866314 0.937441
vt 0.866314 0.897962
vt 0.889378 0.888409
vt 0.917293 0.916324
vt 0.746541 0.611927
vt 0.781622 0.527235
vt 0.866314 0.985118
vt 0.951006 0.950037
vt 0.815334 0.662907
vt 0.781622 0.696619
vt 0.781622 0.950037
vt 0.815334 0.916325
vt 0.843250 0.634991
vt 0.843250 0.888409
vt 0.866314 0.644544
vt 0.866314 0.684023
vt 0.794218 0.865345
vt 0.833697 0.865345
vt 0.866314 0.731700
vt 0.746541 0.865345
vt 0.917293 0.662907
vt 0.951006 0.696619
vt 0.781622 0.780653
vt 0.815334 0.814366
vt 0.889378 0.634991
vt 0.843250 0.842281
vt 0.898931 0.611927
vt 0.938410 0.611927
vt 0.866314 0.793249
vt 0.866314 0.832728
vt 0.986087 0.611927
vt 0.866314 0.745572
vt 0.917294 0.560947
vt 0.951006 0.527235
vt 0.951006 0.780653
vt 0.917294 0.814365
vt 0.889378 0.588863
vt 0.889378 0.842281
vt 0.866314 0.579310
vt 0.866314 0.539831
vt 0.938410 0.865345
vt 0.898931 0.865345
vt 0.866314 0.492154
vt 0.986087 0.865345
vt 0.866314 0.585461
vt 0.847600 0.593213
vt 0.892780 0.865345
vt 0.885028 0.884059
vt 0.885028 0.593213
vt 0.885028 0.846631
vt 0.892780 0.611927
vt 0.866314 0.838879
vt 0.885028 0.630641
vt 0.847600 0.846631
vt 0.866314 0.638393
vt 0.839848 0.865345
vt 0.847600 0.630641
vt 0.847600 0.884059
vt 0.839848 0.611927
vt 0.866314 0.891811
vt 0.866314 0.611927
vt 0.866314 0.865345
vt 0.520711 0.060503
vt 0.517028 0.068490
vt 0.500000 0.064527
vt 0.500000 0.054411
vt 0.482972 0.068490
vt 0.479289 0.060503
vt 0.530457 0.065062
vt 0.522612 0.070678
vt 0.477388 0.070678
vt 0.469543 0.065062
vt 0.532878 0.067822
vt 0.526301 0.079422
vt 0.473699 0.079422
vt 0.467122 0.067822
vt 0.544695 0.083023
vt 0.529228 0.091098
vt 0.470772 0.091098
vt 0.455305 0.083023
vt 0.565647 0.115495
vt 0.537536 0.127779
vt 0.462464 0.127779
vt 0.434353 0.115495
vt 0.586916 0.172042
vt 0.626605 0.208159
vt 0.600470 0.238288
vt 0.535885 0.215568
vt 0.399530 0.238288
vt 0.373395 0.208159
vt 0.413084 0.172042
vt 0.464115 0.215568
vt 0.650908 0.240294
vt 0.636962 0.261221
vt 0.363038 0.261221
vt 0.349092 0.240294
vt 0.689501 0.268805
vt 0.655896 0.284413
vt 0.344104 0.284413
vt 0.310499 0.268805
vt 0.684517 0.317795
vt 0.659507 0.313152
vt 0.340493 0.313152
vt 0.315483 0.317795
vt 0.671357 0.334694
vt 0.649107 0.322437
vt 0.350893 0.322437
vt 0.328643 0.334694
vt 0.636775 0.370732
vt 0.613636 0.353108
vt 0.386364 0.353108
vt 0.363225 0.370732
vt 0.602261 0.395588
vt 0.594178 0.371277
vt 0.405822 0.371277
vt 0.397739 0.395588
vt 0.581044 0.398468
vt 0.577351 0.373341
vt 0.422649 0.373341
vt 0.418956 0.398468
vt 0.532016 0.387365
vt 0.539817 0.354339
vt 0.460183 0.354339
vt 0.467984 0.387365
vt 0.500000 0.382860
vt 0.500000 0.340417
vt 0.559135 0.334326
vt 0.579057 0.335646
vt 0.420943 0.335646
vt 0.440865 0.334326
vt 0.592090 0.332885
vt 0.407910 0.332885
vt 0.606163 0.325516
vt 0.393837 0.325516
vt 0.628251 0.311636
vt 0.371749 0.311636
vt 0.635551 0.300507
vt 0.364449 0.300507
vt 0.631484 0.283889
vt 0.368516 0.283889
vt 0.611331 0.264411
vt 0.388669 0.264411
vt 0.592372 0.254897
vt 0.407628 0.254897
vt 0.559669 0.267717
vt 0.440331 0.267717
vt 0.550878 0.277832
vt 0.500000 0.252445
vt 0.449122 0.277832
vt 0.544001 0.314523
vt 0.455999 0.314523
vt 0.500000 0.295691
vt 0.543637 0.293371
vt 0.456363 0.293371
vt 0.506819 0.075382
vt 0.500000 0.073497
vt 0.493181 0.075382
vt 0.511782 0.080633
vt 0.488218 0.080633
vt 0.512172 0.093457
vt 0.487828 0.093457
vt 0.514257 0.133422
vt 0.513874 0.097191
vt 0.486126 0.097191
vt 0.485743 0.133422
vt 0.520226 0.164615
vt 0.500000 0.157864
vt 0.500000 0.134352
vt 0.479774 0.164615
vt 0.500000 0.100063
vt 0.500000 0.091346
vt 0.530258 0.180239
vt 0.521901 0.181560
vt 0.517666 0.172353
vt 0.482334 0.172353
vt 0.478099 0.181560
vt 0.469742 0.180239
vt 0.523673 0.198817
vt 0.518957 0.194728
vt 0.481043 0.194728
vt 0.476327 0.198817
vt 0.500000 0.203867
vt 0.508211 0.197295
vt 0.491789 0.197295
vt 0.500000 0.197278
vt 0.500000 0.192167
vt 0.500000 0.165170
vt 0.513538 0.176949
vt 0.500000 0.171718
vt 0.486462 0.176949
vt 0.500000 0.186182
vt 0.508818 0.192407
vt 0.491182 0.192407
vt 0.515232 0.190709
vt 0.484768 0.190709
vt 0.516908 0.181873
vt 0.483092 0.181873
vt 0.544209 0.172814
vt 0.455791 0.172814
vt 0.541327 0.154899
vt 0.458673 0.154899
vt 0.578661 0.139176
vt 0.421339 0.139176
vt 0.583245 0.154155
vt 0.416755 0.154155
vt 0.500000 0.089977
vt 0.509911 0.090724
vt 0.490089 0.090724
vt 0.509713 0.082236
vt 0.490287 0.082236
vt 0.505196 0.077083
vt 0.494804 0.077083
vt 0.500000 0.075473
vt 0.503445 0.080840
vt 0.500000 0.080320
vt 0.496555 0.080840
vt 0.506660 0.083289
vt 0.493340 0.083289
vt 0.506822 0.086791
vt 0.493178 0.086791
vt 0.500000 0.085637
vt 0.562361 0.284338
vt 0.559190 0.294882
vt 0.437639 0.284338
vt 0.440810 0.294882
vt 0.563180 0.307151
vt 0.436820 0.307151
vt 0.570458 0.318697
vt 0.429542 0.318697
vt 0.569243 0.278245
vt 0.430757 0.278245
vt 0.589914 0.271772
vt 0.410086 0.271772
vt 0.602190 0.277180
vt 0.397810 0.277180
vt 0.617110 0.287175
vt 0.382890 0.287175
vt 0.618074 0.299197
vt 0.381926 0.299197
vt 0.615871 0.307438
vt 0.384129 0.307438
vt 0.598424 0.313725
vt 0.401576 0.313725
vt 0.590828 0.319797
vt 0.409172 0.319797
vt 0.582130 0.320991
vt 0.417870 0.320991
vt 0.578615 0.309394
vt 0.583998 0.312892
vt 0.421385 0.309394
vt 0.416002 0.312892
vt 0.589656 0.312336
vt 0.410344 0.312336
vt 0.596347 0.309249
vt 0.403653 0.309249
vt 0.606014 0.302517
vt 0.393986 0.302517
vt 0.607735 0.297520
vt 0.392265 0.297520
vt 0.606985 0.291216
vt 0.393015 0.291216
vt 0.598275 0.283083
vt 0.401725 0.283083
vt 0.589866 0.280167
vt 0.410134 0.280167
vt 0.576352 0.284624
vt 0.423648 0.284624
vt 0.572831 0.289915
vt 0.427169 0.289915
vt 0.573307 0.303342
vt 0.426693 0.303342
vt 0.572447 0.295716
vt 0.427553 0.295716
vt 0.529647 0.428636
vt 0.500000 0.428636
vt 0.470353 0.428636
vt 0.584616 0.428636
vt 0.415384 0.428636
vt 0.622301 0.417889
vt 0.377699 0.417889
vt 0.666214 0.388954
vt 0.333786 0.388954
vt 0.701481 0.344467
vt 0.298519 0.344467
vt 0.712163 0.315527
vt 0.287837 0.315527
vt 0.704305 0.260225
vt 0.295695 0.260225
vt 0.672947 0.224880
vt 0.327053 0.224880
vt 0.640497 0.198841
vt 0.359503 0.198841
vt 0.603553 0.023452
vt 0.625128 0.029461
vt 0.635753 0.082198
vt 0.598617 0.056841
vt 0.364247 0.082198
vt 0.374872 0.029461
vt 0.396447 0.023452
vt 0.401383 0.056841
vt 0.546781 0.009442
vt 0.556354 0.040906
vt 0.453219 0.009442
vt 0.443646 0.040906
vt 0.500000 0.033223
vt 0.527159 0.049514
vt 0.472841 0.049514
vt 0.537222 0.060794
vt 0.462778 0.060794
vt 0.558499 0.065137
vt 0.441501 0.065137
vt 0.588127 0.085177
vt 0.411873 0.085177
vt 0.607239 0.113940
vt 0.392761 0.113940
vt 0.612663 0.133675
vt 0.605467 0.151503
vt 0.394533 0.151503
vt 0.387337 0.133675
vt 0.600708 0.162985
vt 0.399292 0.162985
vt 0.922374 0.064228
vt 0.859647 0.117994
vt 0.823287 0.101559
vt 0.861342 0.027230
vt 0.176713 0.101559
vt 0.140353 0.117994
vt 0.077626 0.064228
vt 0.138658 0.027230
vt 0.765863 0.087001
vt 0.774604 0.010837
vt 0.234137 0.087001
vt 0.225396 0.010837
vt 0.661952 0.087561
vt 0.647010 0.028716
vt 0.338048 0.087561
vt 0.352990 0.028716
vt 0.743592 0.198572
vt 0.766410 0.233065
vt 0.256408 0.198572
vt 0.233590 0.233065
vt 0.987633 0.154243
vt 0.889478 0.177602
vt 0.110522 0.177602
vt 0.012367 0.154243
vt 0.899807 0.420886
vt 0.844317 0.347370
vt 0.881169 0.309153
vt 0.958963 0.357385
vt 0.118831 0.309153
vt 0.155683 0.347370
vt 0.100193 0.420886
vt 0.041037 0.357385
vt 0.903302 0.261367
vt 0.999860 0.253531
vt 0.096698 0.261367
vt 0.000140 0.253531
vt 0.724763 0.340212
vt 0.744725 0.304629
vt 0.766113 0.319494
vt 0.255275 0.304629
vt 0.275237 0.340212
vt 0.233887 0.319494
vt 0.793427 0.280495
vt 0.826663 0.297810
vt 0.206573 0.280495
vt 0.173337 0.297810
vt 0.823620 0.254612
vt 0.855331 0.267956
vt 0.176380 0.254612
vt 0.144669 0.267956
vt 0.835860 0.225225
vt 0.868309 0.233525
vt 0.164140 0.225225
vt 0.131691 0.233525
vt 0.813499 0.190705
vt 0.851288 0.181145
vt 0.148712 0.181145
vt 0.186501 0.190705
vt 0.772263 0.374010
vt 0.227737 0.374010
vt 0.744519 0.390057
vt 0.255481 0.390057
vt 0.824765 0.470987
vt 0.175235 0.470987
vt 0.792141 0.464714
vt 0.742181 0.461543
vt 0.726855 0.432574
vt 0.273145 0.432574
vt 0.257819 0.461543
vt 0.207859 0.464714
vt 0.795638 0.489991
vt 0.204362 0.489991
vt 0.786137 0.227788
vt 0.213863 0.227788
vt 0.802950 0.203415
vt 0.197050 0.203415
vt 0.769334 0.128771
vt 0.691484 0.146686
vt 0.230666 0.128771
vt 0.308516 0.146686
vt 0.780113 0.169386
vt 0.219887 0.169386
vt 0.803789 0.171181
vt 0.830917 0.139518
vt 0.169083 0.139518
vt 0.196211 0.171181
vt 0.574628 0.959188
vt 0.464516 0.959188
vt 0.477326 0.891852
vt 0.545439 0.884582
vt 0.272900 0.891852
vt 0.285710 0.959188
vt 0.175598 0.959188
vt 0.204787 0.884582
vt 0.605134 0.846978
vt 0.715894 0.897069
vt 0.145092 0.846978
vt 0.034332 0.897069
vt 0.605360 0.784410
vt 0.683874 0.757011
vt 0.144866 0.784410
vt 0.066352 0.757011
vt 0.574835 0.744212
vt 0.617867 0.719156
vt 0.175391 0.744212
vt 0.132359 0.719156
vt 0.534996 0.712528
vt 0.568728 0.682132
vt 0.215230 0.712528
vt 0.181498 0.682132
vt 0.483006 0.686791
vt 0.508539 0.641024
vt 0.267220 0.686791
vt 0.241687 0.641024
vt 0.513415 0.736977
vt 0.478880 0.719593
vt 0.271346 0.719593
vt 0.236811 0.736977
vt 0.541117 0.760754
vt 0.209109 0.760754
vt 0.557599 0.789442
vt 0.192627 0.789442
vt 0.553841 0.821849
vt 0.196385 0.821849
vt 0.524671 0.842380
vt 0.225555 0.842380
vt 0.485193 0.845321
vt 0.265033 0.845321
vt 0.786150 0.181127
vt 0.770208 0.191225
vt 0.213850 0.181127
vt 0.229792 0.191225
vt 0.408153 0.587507
vt 0.409610 0.674022
vt 0.342073 0.587507
vt 0.340616 0.674022
vt 0.400301 0.910556
vt 0.414155 0.878318
vt 0.336071 0.878318
vt 0.349925 0.910556
vt 0.443630 0.713731
vt 0.306596 0.713731
vt 0.429725 0.728622
vt 0.392812 0.710774
vt 0.357414 0.710774
vt 0.320501 0.728622
vt 0.422979 0.754609
vt 0.432640 0.746527
vt 0.327247 0.754609
vt 0.317586 0.746527
vt 0.427719 0.796173
vt 0.391578 0.815187
vt 0.358648 0.815187
vt 0.322507 0.796173
vt 0.448277 0.830976
vt 0.301949 0.830976
vt 0.797710 0.195652
vt 0.802580 0.199758
vt 0.197420 0.199758
vt 0.202290 0.195652
vt 0.789609 0.184671
vt 0.210391 0.184671
vt 0.466042 0.804091
vt 0.490498 0.816075
vt 0.284184 0.804091
vt 0.259728 0.816075
vt 0.448042 0.783921
vt 0.302184 0.783921
vt 0.438745 0.764960
vt 0.311481 0.764960
vt 0.445216 0.756351
vt 0.305010 0.756351
vt 0.449819 0.743458
vt 0.300407 0.743458
vt 0.456307 0.732687
vt 0.293919 0.732687
vt 0.475471 0.740871
vt 0.274755 0.740871
vt 0.514211 0.817769
vt 0.236015 0.817769
vt 0.527961 0.808598
vt 0.222265 0.808598
vt 0.530079 0.790754
vt 0.220147 0.790754
vt 0.518620 0.772385
vt 0.231606 0.772385
vt 0.498668 0.755033
vt 0.251558 0.755033
vt 0.468029 0.756171
vt 0.459660 0.770459
vt 0.282197 0.756171
vt 0.290566 0.770459
vt 0.487167 0.769899
vt 0.477354 0.785393
vt 0.263059 0.769899
vt 0.272872 0.785393
vt 0.504617 0.782999
vt 0.496545 0.797122
vt 0.245609 0.782999
vt 0.253681 0.797122
vt 0.516137 0.792591
vt 0.513713 0.804019
vt 0.234089 0.792591
vt 0.236513 0.804019
vt 0.574269 0.607668
vt 0.613510 0.655816
vt 0.175957 0.607668
vt 0.136716 0.655816
vt 0.644031 0.693270
vt 0.106195 0.693270
vt 0.668163 0.712097
vt 0.082063 0.712097
vt 0.727131 0.698475
vt 0.676584 0.686010
vt 0.023095 0.698475
vt 0.073642 0.686010
vt 0.729804 0.624370
vt 0.667013 0.640198
vt 0.020422 0.624370
vt 0.083213 0.640198
vt 0.721292 0.572934
vt 0.648152 0.594596
vt 0.028934 0.572934
vt 0.102074 0.594596
vt 0.630034 0.557583
vt 0.717709 0.538143
vt 0.032517 0.538143
vt 0.120192 0.557583
vt 0.526877 0.539235
vt 0.223349 0.539235
s 0
f 97/78/87 51/79/87 53/80/87 95/81/87
f 54/82/88 52/83/88 98/84/88 96/85/88
f 95/81/89 53/80/89 55/86/89 93/87/89
f 56/88/90 54/82/90 96/85/90 94/89/90
f 53/80/91 59/90/91 57/91/91 55/86/91
f 58/92/92 60/93/92 54/82/92 56/88/92
f 51/79/93 61/94/93 59/90/93 53/80/93
f 60/93/94 62/95/94 52/83/94 54/82/94
f 61/94/95 63/96/95 65/97/95 59/90/95
f 66/98/96 64/99/96 62/95/96 60/93/96
f 59/90/97 65/97/97 67/100/97 57/91/97
f 68/101/98 66/98/98 60/93/98 58/92/98
f 65/97/99 71/102/99 69/103/99 67/100/99
f 70/104/100 72/105/100 66/98/100 68/101/100
f 63/96/101 73/106/101 71/102/101 65/97/101
f 72/105/102 74/107/102 64/99/102 66/98/102
f 73/106/103 75/108/103 77/109/103 71/102/103
f 78/110/104 76/111/104 74/107/104 72/105/104
f 71/102/105 77/109/105 79/112/105 69/103/105
f 80/113/106 78/110/106 72/105/106 70/104/106
f 77/109/107 83/114/107 81/115/107 79/112/107
f 82/116/108 84/117/108 78/110/108 80/113/108
f 75/108/109 85/118/109 83/114/109 77/109/109
f 84/117/110 86/119/110 76/111/110 78/110/110
f 85/118/111 87/120/111 89/121/111 83/114/111
f 90/122/112 88/123/112 86/119/112 84/117/112
f 83/114/113 89/121/113 91/124/113 81/115/113
f 92/125/114 90/122/114 84/117/114 82/116/114
f 89/121/115 95/81/115 93/87/115 91/124/115
f 94/89/116 96/85/116 90/122/116 92/125/116
f 87/120/117 97/78/117 95/81/117 89/121/117
f 96/85/118 98/84/118 88/123/118 90/122/118
f 97/78/119 87/120/119 101/126/119 99/127/119
f 102/128/120 88/123/120 98/84/120 100/129/120
f 87/120/121 85/118/121 103/130/121 101/126/121
f 104/131/122 86/119/122 88/123/122 102/128/122
f 85/118/123 75/108/123 105/132/123 103/130/123
f 106/133/124 76/111/124 86/119/124 104/131/124
f 75/108/125 73/106/125 107/134/125 105/132/125
f 108/135/126 74/107/126 76/111/126 106/133/126
f 73/106/127 63/96/127 109/136/127 107/134/127
f 110/137/128 64/99/128 74/107/128 108/135/128
f 63/96/129 61/94/129 113/138/129 109/136/129
f 114/139/130 62/95/130 64/99/130 110/137/130
f 61/94/131 51/79/131 115/140/131 113/138/131
f 116/141/132 52/83/132 62/95/132 114/139/132
f 51/79/133 97/78/133 99/127/133 115/140/133
f 100/129/134 98/84/134 52/83/134 116/141/134
f 111/142/135 115/140/135 99/127/135
f 100/129/136 116/141/136 112/143/136
f 113/138/137 115/140/137 111/142/137
f 112/143/138 116/141/138 114/139/138
f 111/142/139 109/136/139 113/138/139
f 114/139/140 110/137/140 112/143/140
f 111/142/141 107/134/141 109/136/141
f 110/137/142 108/135/142 112/143/142
f 111/142/143 105/132/143 107/134/143
f 108/135/144 106/133/144 112/143/144
f 111/142/145 103/130/145 105/132/145
f 106/133/146 104/131/146 112/143/146
f 111/142/147 101/126/147 103/130/147
f 104/131/148 102/128/148 112/143/148
f 111/142/149 99/127/149 101/126/149
f 102/128/150 100/129/150 112/143/150
f 139/144/151 224/145/151 226/146/151 141/147/151
f 226/146/152 225/148/152 140/149/152 141/147/152
f 137/150/153 222/151/153 224/145/153 139/144/153
f 225/148/154 223/152/154 138/153/154 140/149/154
f 135/154/155 220/155/155 222/151/155 137/150/155
f 223/152/156 221/156/156 136/157/156 138/153/156
f 133/158/157 218/159/157 220/155/157 135/154/157
f 221/156/158 219/160/158 134/161/158 136/157/158
f 131/162/159 216/163/159 218/159/159 133/158/159
f 219/160/160 217/164/160 132/165/160 134/161/160
f 129/166/161 142/167/161 196/168/161 214/169/161
f 197/170/162 143/171/162 130/172/162 215/173/162
f 142/167/163 144/174/163 198/175/163 196/168/163
f 199/176/164 145/177/164 143/171/164 197/170/164
f 144/174/165 146/178/165 200/179/165 198/175/165
f 201/180/166 147/181/166 145/177/166 199/176/166
f 146/178/167 148/182/167 202/183/167 200/179/167
f 203/184/168 149/185/168 147/181/168 201/180/168
f 148/182/169 150/186/169 204/187/169 202/183/169
f 205/188/170 151/189/170 149/185/170 203/184/170
f 150/186/171 152/190/171 206/191/171 204/187/171
f 207/192/172 153/193/172 151/189/172 205/188/172
f 152/190/173 154/194/173 208/195/173 206/191/173
f 209/196/174 155/197/174 153/193/174 207/192/174
f 154/194/175 156/198/175 210/199/175 208/195/175
f 211/200/176 157/201/176 155/197/176 209/196/176
f 156/198/177 158/202/177 212/203/177 210/199/177
f 213/204/178 159/205/178 157/201/178 211/200/178
f 158/202/179 117/206/179 118/207/179 212/203/179
f 118/207/180 117/206/180 159/205/180 213/204/180
f 160/208/181 178/209/181 210/199/181 212/203/181
f 211/200/182 179/210/182 161/211/182 213/204/182
f 178/209/183 229/212/183 208/195/183 210/199/183
f 209/196/184 230/213/184 179/210/184 211/200/184
f 176/214/185 206/191/185 208/195/185 229/212/185
f 209/196/186 207/192/186 177/215/186 230/213/186
f 174/216/187 204/187/187 206/191/187 176/214/187
f 207/192/188 205/188/188 175/217/188 177/215/188
f 172/218/189 202/183/189 204/187/189 174/216/189
f 205/188/190 203/184/190 173/219/190 175/217/190
f 170/220/191 200/179/191 202/183/191 172/218/191
f 203/184/192 201/180/192 171/221/192 173/219/192
f 168/222/193 198/175/193 200/179/193 170/220/193
f 201/180/194 199/176/194 169/223/194 171/221/194
f 166/224/195 196/168/195 198/175/195 168/222/195
f 199/176/196 197/170/196 167/225/196 169/223/196
f 164/226/197 214/169/197 196/168/197 166/224/197
f 197/170/198 215/173/198 165/227/198 167/225/198
f 164/226/199 231/228/199 227/229/199 214/169/199
f 227/229/200 232/230/200 165/227/200 215/173/200
f 160/208/201 212/203/201 118/207/201 162/231/201
f 118/207/202 213/204/202 161/211/202 163/232/202
f 162/231/203 118/207/203 228/233/203 233/234/203
f 228/233/204 118/207/204 163/232/204 234/235/204
f 227/229/205 231/228/205 233/234/205 228/233/205
f 234/235/206 232/230/206 227/229/206 228/233/206
f 185/236/207 187/237/207 226/146/207 224/145/207
f 226/146/208 187/237/208 186/238/208 225/148/208
f 183/239/209 185/236/209 224/145/209 222/151/209
f 225/148/210 186/238/210 184/240/210 223/152/210
f 181/241/211 183/239/211 222/151/211 220/155/211
f 223/152/212 184/240/212 182/242/212 221/156/212
f 216/163/213 237/243/213 235/244/213 218/159/213
f 236/245/214 238/246/214 217/164/214 219/160/214
f 181/241/215 220/155/215 218/159/215 235/244/215
f 219/160/216 221/156/216 182/242/216 236/245/216
f 194/247/217 240/248/217 239/249/217 237/243/217
f 239/249/218 240/248/218 195/250/218 238/246/218
f 235/244/219 237/243/219 239/249/219 119/251/219
f 239/249/220 238/246/220 236/245/220 119/251/220
f 180/252/221 181/241/221 235/244/221 119/251/221
f 236/245/221 182/242/221 180/252/221 119/251/221
f 192/253/222 243/254/222 241/255/222 194/247/222
f 242/256/223 244/257/223 193/258/223 195/250/223
f 190/259/224 245/260/224 243/254/224 192/253/224
f 244/257/225 246/261/225 191/262/225 193/258/225
f 189/263/226 247/264/226 245/260/226 190/259/226
f 246/261/227 248/265/227 189/263/227 191/262/227
f 188/266/228 121/267/228 247/264/228 189/263/228
f 248/265/229 121/267/229 188/266/229 189/263/229
f 240/248/230 194/247/230 241/255/230 120/268/230
f 242/256/231 195/250/231 240/248/231 120/268/231
f 120/268/232 241/255/232 256/269/232 258/270/232
f 257/271/233 242/256/233 120/268/233 258/270/233
f 121/267/234 249/272/234 250/273/234 247/264/234
f 251/274/235 249/272/235 121/267/235 248/265/235
f 247/264/236 250/273/236 252/275/236 245/260/236
f 253/276/237 251/274/237 248/265/237 246/261/237
f 245/260/238 252/275/238 254/277/238 243/254/238
f 255/278/239 253/276/239 246/261/239 244/257/239
f 243/254/240 254/277/240 256/269/240 241/255/240
f 257/271/241 255/278/241 244/257/241 242/256/241
f 249/272/242 254/277/242 252/275/242 250/273/242
f 253/276/243 255/278/243 249/272/243 251/274/243
f 249/272/244 258/270/244 256/269/244 254/277/244
f 257/271/245 258/270/245 249/272/245 255/278/245
f 189/263/246 190/259/246 214/169/246 227/229/246
f 215/173/247 191/262/247 189/263/247 227/229/247
f 190/259/248 192/253/248 261/279/248 214/169/248
f 262/280/249 193/258/249 191/262/249 215/173/249
f 192/253/250 194/247/250 263/281/250 261/279/250
f 264/282/251 195/250/251 193/258/251 262/280/251
f 194/247/252 237/243/252 216/163/252 263/281/252
f 217/164/253 238/246/253 195/250/253 264/282/253
f 131/162/254 259/283/254 263/281/254 216/163/254
f 264/282/255 260/284/255 132/165/255 217/164/255
f 259/283/256 265/285/256 261/279/256 263/281/256
f 262/280/257 266/286/257 260/284/257 264/282/257
f 129/166/258 214/169/258 261/279/258 265/285/258
f 262/280/259 215/173/259 130/172/259 266/286/259
f 181/241/260 180/252/260 122/287/260 272/288/260
f 122/287/261 180/252/261 182/242/261 273/289/261
f 183/239/262 181/241/262 272/288/262 270/290/262
f 273/289/263 182/242/263 184/240/263 271/291/263
f 185/236/264 183/239/264 270/290/264 268/292/264
f 271/291/265 184/240/265 186/238/265 269/293/265
f 187/237/266 185/236/266 268/292/266 267/294/266
f 269/293/267 186/238/267 187/237/267 267/294/267
f 267/294/268 268/292/268 279/295/268 281/296/268
f 280/297/269 269/293/269 267/294/269 281/296/269
f 268/292/270 270/290/270 277/298/270 279/295/270
f 278/299/271 271/291/271 269/293/271 280/297/271
f 270/290/272 272/288/272 275/300/272 277/298/272
f 276/301/273 273/289/273 271/291/273 278/299/273
f 272/288/274 122/287/274 274/302/274 275/300/274
f 274/302/275 122/287/275 273/289/275 276/301/275
f 274/302/276 281/296/276 279/295/276 275/300/276
f 280/297/277 281/296/277 274/302/277 276/301/277
f 275/300/278 279/295/278 277/298/278
f 278/299/279 280/297/279 276/301/279
f 233/234/280 231/228/280 284/303/280 282/304/280
f 285/305/281 232/230/281 234/235/281 283/306/281
f 162/231/282 233/234/282 282/304/282 304/307/282
f 283/306/283 234/235/283 163/232/283 305/308/283
f 160/208/284 162/231/284 304/307/284 306/309/284
f 305/308/285 163/232/285 161/211/285 307/310/285
f 231/228/286 164/226/286 302/311/286 284/303/286
f 303/312/287 165/227/287 232/230/287 285/305/287
f 164/226/288 166/224/288 300/313/288 302/311/288
f 301/314/289 167/225/289 165/227/289 303/312/289
f 166/224/290 168/222/290 298/315/290 300/313/290
f 299/316/291 169/223/291 167/225/291 301/314/291
f 168/222/292 170/220/292 296/317/292 298/315/292
f 297/318/293 171/221/293 169/223/293 299/316/293
f 170/220/294 172/218/294 294/319/294 296/317/294
f 295/320/295 173/219/295 171/221/295 297/318/295
f 172/218/296 174/216/296 292/321/296 294/319/296
f 293/322/297 175/217/297 173/219/297 295/320/297
f 174/216/298 176/214/298 290/323/298 292/321/298
f 291/324/299 177/215/299 175/217/299 293/322/299
f 176/214/300 229/212/300 286/325/300 290/323/300
f 287/326/301 230/213/301 177/215/301 291/324/301
f 229/212/302 178/209/302 288/327/302 286/325/302
f 289/328/303 179/210/303 230/213/303 287/326/303
f 178/209/304 160/208/304 306/309/304 288/327/304
f 307/310/305 161/211/305 179/210/305 289/328/305
f 288/327/306 306/309/306 308/329/306 326/330/306
f 309/331/307 307/310/307 289/328/307 327/332/307
f 286/325/308 288/327/308 326/330/308 328/333/308
f 327/332/309 289/328/309 287/326/309 329/334/309
f 290/323/310 286/325/310 328/333/310 324/335/310
f 329/334/311 287/326/311 291/324/311 325/336/311
f 292/321/312 290/323/312 324/335/312 322/337/312
f 325/336/313 291/324/313 293/322/313 323/338/313
f 294/319/314 292/321/314 322/337/314 320/339/314
f 323/338/315 293/322/315 295/320/315 321/340/315
f 296/317/316 294/319/316 320/339/316 318/341/316
f 321/340/317 295/320/317 297/318/317 319/342/317
f 298/315/318 296/317/318 318/341/318 316/343/318
f 319/342/319 297/318/319 299/316/319 317/344/319
f 300/313/320 298/315/320 316/343/320 314/345/320
f 317/344/321 299/316/321 301/314/321 315/346/321
f 302/311/322 300/313/322 314/345/322 312/347/322
f 315/346/323 301/314/323 303/312/323 313/348/323
f 284/303/324 302/311/324 312/347/324 330/349/324
f 313/348/325 303/312/325 285/305/325 331/350/325
f 306/309/326 304/307/326 310/351/326 308/329/326
f 311/352/327 305/308/327 307/310/327 309/331/327
f 304/307/328 282/304/328 332/353/328 310/351/328
f 333/354/329 283/306/329 305/308/329 311/352/329
f 282/304/330 284/303/330 330/349/330 332/353/330
f 331/350/331 285/305/331 283/306/331 333/354/331
f 117/206/332 158/202/332 334/355/332 123/356/332
f 335/357/333 159/205/333 117/206/333 123/356/333
f 158/202/334 156/198/334 336/358/334 334/355/334
f 337/359/335 157/201/335 159/205/335 335/357/335
f 156/198/336 154/194/336 338/360/336 336/358/336
f 339/361/337 155/197/337 157/201/337 337/359/337
f 154/194/338 152/190/338 340/362/338 338/360/338
f 341/363/339 153/193/339 155/197/339 339/361/339
f 152/190/340 150/186/340 342/364/340 340/362/340
f 343/365/341 151/189/341 153/193/341 341/363/341
f 150/186/342 148/182/342 344/366/342 342/364/342
f 345/367/343 149/185/343 151/189/343 343/365/343
f 148/182/344 146/178/344 346/368/344 344/366/344
f 347/369/345 147/181/345 149/185/345 345/367/345
f 146/178/346 144/174/346 348/370/346 346/368/346
f 349/371/347 145/177/347 147/181/347 347/369/347
f 144/174/348 142/167/348 350/372/348 348/370/348
f 351/373/349 143/171/349 145/177/349 349/371/349
f 358/374/350 359/375/350 378/376/350 388/377/350
f 379/378/351 359/379/351 358/380/351 389/381/351
f 357/382/352 358/374/352 388/377/352 386/383/352
f 389/381/353 358/380/353 357/384/353 387/385/353
f 356/386/354 357/382/354 386/383/354 390/387/354
f 387/385/355 357/384/355 356/386/355 391/388/355
f 139/144/356 141/147/356 356/386/356 390/387/356
f 356/386/357 141/147/357 140/149/357 391/388/357
f 137/150/358 139/144/358 390/387/358 384/389/358
f 391/388/359 140/149/359 138/153/359 385/390/359
f 135/154/360 137/150/360 384/389/360 380/391/360
f 385/390/361 138/153/361 136/157/361 381/392/361
f 133/158/362 135/154/362 380/391/362 382/393/362
f 381/392/363 136/157/363 134/161/363 383/394/363
f 380/391/364 386/383/364 388/377/364 382/393/364
f 389/381/365 387/385/365 381/392/365 383/394/365
f 380/391/366 384/389/366 390/387/366 386/383/366
f 391/388/367 385/390/367 381/392/367 387/385/367
f 376/395/368 382/393/368 388/377/368 378/376/368
f 389/381/369 383/394/369 377/396/369 379/378/369
f 131/162/370 133/158/370 382/393/370 376/395/370
f 383/394/371 134/161/371 132/165/371 377/396/371
f 259/283/372 392/397/372 394/398/372 265/285/372
f 395/399/373 393/400/373 260/284/373 266/286/373
f 131/162/374 376/395/374 392/397/374 259/283/374
f 393/400/375 377/396/375 132/165/375 260/284/375
f 129/166/376 265/285/376 394/398/376 396/401/376
f 395/399/377 266/286/377 130/172/377 397/402/377
f 129/166/378 396/401/378 350/372/378 142/167/378
f 351/373/379 397/402/379 130/172/379 143/171/379
f 127/403/380 374/404/380 402/405/380 354/406/380
f 403/407/381 375/408/381 127/409/381 354/410/381
f 354/406/382 402/405/382 400/411/382 128/412/382
f 401/413/383 403/407/383 354/410/383 128/414/383
f 128/412/384 400/411/384 398/415/384 355/416/384
f 399/417/385 401/413/385 128/414/385 355/418/385
f 355/416/386 398/415/386 378/376/386 359/375/386
f 379/378/387 399/417/387 355/418/387 359/379/387
f 376/395/388 378/376/388 398/415/388 392/397/388
f 399/417/389 379/378/389 377/396/389 393/400/389
f 346/368/390 348/370/390 368/419/390 360/420/390
f 369/421/391 349/371/391 347/369/391 361/422/391
f 126/423/392 366/424/392 374/404/392 127/403/392
f 375/408/393 367/425/393 126/426/393 127/409/393
f 352/427/394 408/428/394 406/429/394 353/430/394
f 407/431/395 409/432/395 352/433/395 353/434/395
f 353/430/396 406/429/396 404/435/396 125/436/396
f 405/437/397 407/431/397 353/434/397 125/438/397
f 125/436/398 404/435/398 366/424/398 126/423/398
f 367/425/399 405/437/399 125/438/399 126/426/399
f 342/439/400 344/366/400 412/440/400 414/441/400
f 413/442/401 345/367/401 343/443/401 415/444/401
f 414/441/402 412/440/402 418/445/402 416/446/402
f 419/447/403 413/442/403 415/444/403 417/448/403
f 416/446/404 418/445/404 420/449/404 422/450/404
f 421/451/405 419/447/405 417/448/405 423/452/405
f 422/450/406 420/449/406 426/453/406 424/454/406
f 427/455/407 421/451/407 423/452/407 425/456/407
f 364/457/408 428/458/408 424/454/408 426/453/408
f 425/456/409 429/459/409 365/460/409 427/455/409
f 366/424/410 404/435/410 424/454/410 428/458/410
f 425/456/411 405/437/411 367/425/411 429/459/411
f 404/435/412 406/429/412 422/450/412 424/454/412
f 423/452/413 407/431/413 405/437/413 425/456/413
f 406/429/414 408/428/414 416/446/414 422/450/414
f 417/448/415 409/432/415 407/431/415 423/452/415
f 408/428/416 410/461/416 414/441/416 416/446/416
f 415/444/417 411/462/417 409/432/417 417/448/417
f 340/463/418 342/439/418 414/441/418 410/461/418
f 415/444/419 343/443/419 341/464/419 411/462/419
f 124/465/420 410/461/420 408/428/420 352/427/420
f 409/432/421 411/462/421 124/466/421 352/433/421
f 334/467/422 336/468/422 338/469/422 340/463/422
f 339/470/423 337/471/423 335/472/423 341/464/423
f 334/467/424 340/463/424 410/461/424 124/465/424
f 411/462/425 341/464/425 335/472/425 124/466/425
f 123/473/426 334/467/426 124/465/426
f 124/466/427 335/472/427 123/474/427
f 344/366/428 346/368/428 360/420/428 412/440/428
f 361/422/429 347/369/429 345/367/429 413/442/429
f 360/420/430 362/475/430 418/445/430 412/440/430
f 419/447/431 363/476/431 361/422/431 413/442/431
f 362/475/432 432/477/432 420/449/432 418/445/432
f 421/451/433 433/478/433 363/476/433 419/447/433
f 364/457/434 426/453/434 420/449/434 432/477/434
f 421/451/435 427/455/435 365/460/435 433/478/435
f 398/415/436 400/411/436 436/479/436 434/480/436
f 437/481/437 401/413/437 399/417/437 435/482/437
f 368/419/438 434/480/438 436/479/438 370/483/438
f 437/481/439 435/482/439 369/421/439 371/484/439
f 348/370/440 350/372/440 434/480/440 368/419/440
f 435/482/441 351/373/441 349/371/441 369/421/441
f 350/372/442 394/398/442 392/397/442 434/480/442
f 393/400/443 395/399/443 351/373/443 435/482/443
f 392/397/444 398/415/444 434/480/444
f 435/482/445 399/417/445 393/400/445
f 350/372/446 396/401/446 394/398/446
f 395/399/447 397/402/447 351/373/447
f 364/457/448 372/485/448 430/486/448 428/458/448
f 431/487/449 373/488/449 365/460/449 429/459/449
f 366/424/450 428/458/450 430/486/450 374/404/450
f 431/487/451 429/459/451 367/425/451 375/408/451
f 370/483/452 436/479/452 430/486/452 372/485/452
f 431/487/453 437/481/453 371/484/453 373/488/453
f 400/411/454 402/405/454 430/486/454 436/479/454
f 431/487/455 403/407/455 401/413/455 437/481/455
f 374/404/456 430/486/456 402/405/456
f 403/407/457 431/487/457 375/408/457
f 450/489/458 438/490/458 464/491/458 452/492/458
f 465/493/459 439/494/459 451/495/459 453/496/459
f 450/489/460 452/492/460 454/497/460 448/498/460
f 455/499/461 453/496/461 451/495/461 449/500/461
f 448/498/462 454/497/462 456/501/462 446/502/462
f 457/503/463 455/499/463 449/500/463 447/504/463
f 446/502/464 456/501/464 458/505/464 444/506/464
f 459/507/465 457/503/465 447/504/465 445/508/465
f 444/506/466 458/505/466 460/509/466 442/510/466
f 461/511/467 459/507/467 445/508/467 443/512/467
f 442/510/468 460/509/468 462/513/468 440/514/468
f 463/515/469 461/511/469 443/512/469 441/516/469
f 460/509/470 470/517/470 468/518/470 462/513/470
f 469/519/471 471/520/471 461/511/471 463/515/471
f 458/505/472 472/521/472 470/517/472 460/509/472
f 471/520/473 473/522/473 459/507/473 461/511/473
f 456/501/474 474/523/474 472/521/474 458/505/474
f 473/522/475 475/524/475 457/503/475 459/507/475
f 454/497/476 476/525/476 474/523/476 456/501/476
f 475/524/477 477/526/477 455/499/477 457/503/477
f 452/492/478 478/527/478 476/525/478 454/497/478
f 477/526/479 479/528/479 453/496/479 455/499/479
f 452/492/480 464/491/480 466/529/480 478/527/480
f 467/530/481 465/493/481 453/496/481 479/528/481
f 368/419/482 370/483/482 494/531/482 492/532/482
f 495/533/483 371/484/483 369/421/483 493/534/483
f 370/535/484 440/514/484 462/513/484 494/536/484
f 463/515/485 441/516/485 371/537/485 495/538/485
f 360/420/486 368/419/486 492/532/486 362/475/486
f 493/534/487 369/421/487 361/422/487 363/476/487
f 432/539/488 480/540/488 464/491/488 438/490/488
f 465/493/489 481/541/489 433/542/489 439/494/489
f 462/513/490 468/518/490 490/543/490 494/536/490
f 491/544/491 469/519/491 463/515/491 495/538/491
f 488/545/492 496/546/492 494/536/492 490/543/492
f 495/538/493 497/547/493 489/548/493 491/544/493
f 484/549/494 496/546/494 488/545/494 486/550/494
f 489/548/495 497/547/495 485/551/495 487/552/495
f 482/553/496 498/554/496 496/546/496 484/549/496
f 497/547/497 499/555/497 483/556/497 485/551/497
f 480/540/498 498/554/498 482/553/498 500/557/498
f 483/556/499 499/555/499 481/541/499 501/558/499
f 464/491/500 480/540/500 500/557/500 466/529/500
f 501/558/501 481/541/501 465/493/501 467/530/501
f 362/475/502 498/559/502 480/560/502 432/477/502
f 481/561/503 499/562/503 363/476/503 433/478/503
f 362/475/504 492/532/504 496/563/504 498/559/504
f 497/564/505 493/534/505 363/476/505 499/562/505
f 492/532/506 494/531/506 496/563/506
f 497/564/507 495/533/507 493/534/507
f 466/529/508 500/557/508 502/565/508 526/566/508
f 503/567/509 501/558/509 467/530/509 527/568/509
f 500/557/510 482/553/510 512/569/510 502/565/510
f 513/570/511 483/556/511 501/558/511 503/567/511
f 482/553/512 484/549/512 510/571/512 512/569/512
f 511/572/513 485/551/513 483/556/513 513/570/513
f 484/549/514 486/550/514 508/573/514 510/571/514
f 509/574/515 487/552/515 485/551/515 511/572/515
f 486/550/516 488/545/516 506/575/516 508/573/516
f 507/576/517 489/548/517 487/552/517 509/574/517
f 488/545/518 490/543/518 504/577/518 506/575/518
f 505/578/519 491/544/519 489/548/519 507/576/519
f 490/543/520 468/518/520 524/579/520 504/577/520
f 525/580/521 469/519/521 491/544/521 505/578/521
f 478/527/522 466/529/522 526/566/522 514/581/522
f 527/568/523 467/530/523 479/528/523 515/582/523
f 476/525/524 478/527/524 514/581/524 516/583/524
f 515/582/525 479/528/525 477/526/525 517/584/525
f 474/523/526 476/525/526 516/583/526 518/585/526
f 517/584/527 477/526/527 475/524/527 519/586/527
f 472/521/528 474/523/528 518/585/528 520/587/528
f 519/586/529 475/524/529 473/522/529 521/588/529
f 470/517/530 472/521/530 520/587/530 522/589/530
f 521/588/531 473/522/531 471/520/531 523/590/531
f 468/518/532 470/517/532 522/589/532 524/579/532
f 523/590/533 471/520/533 469/519/533 525/580/533
f 508/573/534 506/575/534 530/591/534 528/592/534
f 531/593/535 507/576/535 509/574/535 529/594/535
f 528/592/536 530/591/536 532/595/536 534/596/536
f 533/597/537 531/593/537 529/594/537 535/598/537
f 534/596/538 532/595/538 538/599/538 536/600/538
f 539/601/539 533/597/539 535/598/539 537/602/539
f 536/600/540 538/599/540 540/603/540 542/604/540
f 541/605/541 539/601/541 537/602/541 543/606/541
f 514/581/542 526/566/542 536/600/542 542/604/542
f 537/602/543 527/568/543 515/582/543 543/606/543
f 502/565/544 534/596/544 536/600/544 526/566/544
f 537/602/545 535/598/545 503/567/545 527/568/545
f 502/565/546 512/569/546 528/592/546 534/596/546
f 529/594/547 513/570/547 503/567/547 535/598/547
f 508/573/548 528/592/548 512/569/548 510/571/548
f 513/570/549 529/594/549 509/574/549 511/572/549
f 504/577/550 524/579/550 530/591/550 506/575/550
f 531/593/551 525/580/551 505/578/551 507/576/551
f 522/589/552 532/595/552 530/591/552 524/579/552
f 531/593/553 533/597/553 523/590/553 525/580/553
f 520/587/554 538/599/554 532/595/554 522/589/554
f 533/597/555 539/601/555 521/588/555 523/590/555
f 518/585/556 540/603/556 538/599/556 520/587/556
f 539/601/557 541/605/557 519/586/557 521/588/557
f 516/583/558 542/604/558 540/603/558 518/585/558
f 541/605/559 543/606/559 517/584/559 519/586/559
f 514/581/560 542/604/560 516/583/560
f 517/584/561 543/606/561 515/582/561
f 442/510/562 440/514/562 554/607/562 552/608/562
f 555/609/563 441/516/563 443/512/563 553/610/563
f 444/506/564 442/510/564 552/608/564 550/611/564
f 553/610/565 443/512/565 445/508/565 551/612/565
f 446/502/566 444/506/566 550/611/566 548/613/566
f 551/612/567 445/508/567 447/504/567 549/614/567
f 448/615/568 446/502/568 548/613/568 546/616/568
f 549/614/569 447/504/569 449/617/569 547/618/569
f 450/619/570 448/615/570 546/616/570 544/620/570
f 547/618/571 449/617/571 451/621/571 545/622/571
f 438/623/572 450/619/572 544/620/572 556/624/572
f 545/622/573 451/621/573 439/625/573 557/626/573
f 544/620/574 552/608/574 554/607/574 556/624/574
f 555/609/575 553/610/575 545/622/575 557/626/575
f 544/620/576 546/616/576 550/611/576 552/608/576
f 551/612/577 547/618/577 545/622/577 553/610/577
f 546/616/578 548/613/578 550/611/578
f 551/612/579 549/614/579 547/618/579
f 364/627/580 432/628/580 438/623/580 556/624/580
f 439/625/581 433/629/581 365/630/581 557/626/581
f 364/627/582 556/624/582 554/607/582 372/631/582
f 555/609/583 557/626/583 365/630/583 373/632/583
f 370/535/584 372/631/584 554/607/584 440/514/584
f 555/609/585 373/632/585 371/537/585 441/516/585
